<svg width="124" height="124" viewBox="0 0 124 124" fill="none" xmlns="http://www.w3.org/2000/svg">
<g clip-path="url(#clip0_332_18)">
<path fill-rule="evenodd" clip-rule="evenodd" d="M65.4738 47.1079C65.2589 47.1215 65.0436 47.1283 64.8283 47.1282C59.3117 47.1282 54.8327 42.68 54.8327 37.2013C54.8327 31.7226 59.3117 27.2744 64.8283 27.2744C70.3448 27.2744 74.8238 31.7226 74.8238 37.2013C74.8269 39.479 74.0376 41.6879 72.5897 43.4543L83.6384 63.6253C86.3612 62.6424 89.236 62.1396 92.1331 62.1396C105.858 62.1396 117 73.2055 117 86.8358C117 100.466 105.858 111.532 92.1331 111.532C87.2763 111.53 82.5255 110.121 78.4631 107.477C78.0273 107.196 77.6587 106.823 77.3834 106.385C77.1081 105.947 76.9327 105.455 76.8696 104.942C76.8064 104.43 76.857 103.91 77.0179 103.419C77.1787 102.928 77.4458 102.478 77.8005 102.1C77.8078 102.092 77.8156 102.084 77.8303 102.083C78.4266 101.448 79.2281 101.041 80.0955 100.932C80.9628 100.823 81.841 101.02 82.5774 101.488C85.4236 103.319 88.7422 104.293 92.1331 104.293C101.835 104.293 109.711 96.4707 109.711 86.8358C109.711 77.2009 101.835 69.379 92.1331 69.379C88.7736 69.379 84.0055 70.8385 81.139 72.6452C80.9915 72.7553 80.8218 72.8326 80.6415 72.8718C80.4613 72.911 80.2746 72.9112 80.0943 72.8723C79.9139 72.8335 79.7441 72.7566 79.5963 72.6468C79.4485 72.537 79.3263 72.3969 79.2379 72.236L65.4738 47.1079ZM60.8847 90.0183C60.3804 92.8513 59.3814 95.5749 57.9328 98.0663C51.0705 109.871 35.85 113.922 23.9641 107.107C12.0782 100.291 8.00003 85.1749 14.8618 73.3701C17.2921 69.1937 20.8963 65.8122 25.2328 63.6398C25.6961 63.4058 26.2054 63.2754 26.7249 63.2578C27.2444 63.2401 27.7614 63.3356 28.2398 63.5376C28.7183 63.7394 29.1466 64.0428 29.4945 64.4266C29.8424 64.8103 30.1015 65.265 30.2535 65.7588C30.2564 65.7695 30.2593 65.7797 30.2535 65.7927C30.5091 66.6231 30.4635 67.5162 30.1247 68.3167C29.7858 69.1171 29.175 69.7742 28.3987 70.1736C25.379 71.706 22.8702 74.0732 21.1746 76.9898C16.3241 85.3332 19.2067 96.0189 27.6083 100.837C36.0099 105.654 46.7695 102.791 51.62 94.4466C53.2998 91.5572 54.411 86.7264 54.2691 83.3575C54.2465 83.1756 54.2637 82.9909 54.3196 82.8162C54.3754 82.6414 54.4685 82.4807 54.5926 82.345C54.7167 82.2092 54.8688 82.1017 55.0386 82.0296C55.2084 81.9576 55.3918 81.9228 55.5763 81.9276L84.3703 82.6535C84.4653 82.4627 84.5668 82.2743 84.6755 82.0879C87.4338 77.3433 93.552 75.7148 98.3294 78.4541C103.108 81.194 104.747 87.2702 101.988 92.0148C99.2299 96.7594 93.1117 98.3874 88.3338 95.648C86.3462 94.5118 84.8146 92.7287 83.9982 90.6003L60.8847 90.0183ZM48.8159 56.1385C46.5973 54.2879 44.7213 52.0665 43.2725 49.5746C36.4102 37.7703 40.4884 22.6538 52.3743 15.8391C64.2602 9.0244 79.4812 13.0746 86.343 24.8784C88.7698 29.0565 89.9166 33.847 89.643 38.6627C89.6153 39.1783 89.4744 39.6816 89.23 40.1373C88.9857 40.593 88.6438 40.9901 88.2285 41.3006C87.8132 41.6112 87.3345 41.8277 86.826 41.935C86.3175 42.0423 85.7915 42.0377 85.285 41.9217C85.2742 41.9193 85.2635 41.9164 85.2547 41.9047C84.4029 41.7094 83.647 41.2237 83.1186 40.5321C82.5901 39.8405 82.3225 38.9867 82.3624 38.1194C82.5361 34.7559 81.7262 31.4142 80.0302 28.4976C75.1797 20.1542 64.4206 17.2909 56.019 22.1081C47.6179 26.9258 44.7343 37.611 49.5853 45.9549C51.2651 48.8444 54.922 52.2156 57.9304 53.7778C58.1003 53.8495 58.2526 53.9567 58.377 54.0921C58.5014 54.2275 58.595 54.388 58.6514 54.5626C58.7077 54.7372 58.7255 54.9217 58.7036 55.1038C58.6817 55.2858 58.6205 55.461 58.5243 55.6174L43.4939 80.0197C43.6129 80.1964 43.7265 80.378 43.8352 80.5645C46.593 85.3095 44.9537 91.3858 40.1759 94.1251C35.3985 96.8644 29.2803 95.2364 26.522 90.4914C23.7637 85.7468 25.403 79.6705 30.1803 76.9312C32.165 75.7898 34.4858 75.3642 36.7501 75.7264L48.8159 56.1385Z" fill="#3F4241"/>
</g>
<defs>
<clipPath id="clip0_332_18">
<rect width="109" height="106" fill="white" transform="translate(8 9)"/>
</clipPath>
</defs>
</svg>
