<svg width="63" height="61" viewBox="0 0 63 61" fill="none" xmlns="http://www.w3.org/2000/svg">
<path d="M2.27879 46.1012C1.62879 47.1612 0.898794 48.3912 0.278794 49.3712C0.0120266 49.8221 -0.0672323 50.3595 0.0580524 50.8681C0.183337 51.3768 0.503164 51.8159 0.948794 52.0912L13.9488 60.0912C14.1747 60.2307 14.4261 60.3238 14.6884 60.3651C14.9506 60.4064 15.2185 60.3951 15.4763 60.3318C15.7341 60.2685 15.9768 60.1545 16.1901 59.9965C16.4034 59.8384 16.5832 59.6395 16.7188 59.4112C17.2388 58.5412 17.9088 57.4113 18.6388 56.2013C23.7888 47.7013 28.9688 48.7413 38.3088 53.2013L51.1988 59.3312C51.4404 59.4463 51.7027 59.5116 51.97 59.5234C52.2374 59.5352 52.5044 59.4933 52.7552 59.4C53.0061 59.3068 53.2357 59.1641 53.4304 58.9806C53.6251 58.797 53.781 58.5762 53.8888 58.3312L60.0788 44.3312C60.289 43.8506 60.302 43.3067 60.1149 42.8166C59.9279 42.3265 59.5558 41.9296 59.0788 41.7112C56.3588 40.4312 50.9488 37.8812 46.0788 35.5312C28.5588 27.0212 13.6688 27.5712 2.27879 46.1012Z" fill="url(#paint0_linear_777_5)"/>
<path d="M60.5689 14.3312C61.2189 13.2712 61.9489 12.0412 62.5689 11.0612C62.8357 10.6104 62.9149 10.0729 62.7896 9.56428C62.6643 9.05566 62.3445 8.6165 61.8989 8.34117L48.8989 0.341174C48.6713 0.187885 48.4146 0.0830687 48.1448 0.0332453C47.8749 -0.0165782 47.5977 -0.0103426 47.3304 0.0515639C47.0631 0.11347 46.8113 0.229724 46.5909 0.393091C46.3704 0.556459 46.1859 0.763445 46.0489 1.00117C45.5289 1.87117 44.8589 3.00117 44.1289 4.21117C38.9789 12.7112 33.7989 11.6712 24.4589 7.21117L11.6089 1.11117C11.3672 0.996162 11.105 0.930813 10.8376 0.918999C10.5703 0.907184 10.3033 0.949144 10.0524 1.04239C9.8016 1.13564 9.57203 1.27828 9.37731 1.46187C9.1826 1.64545 9.02671 1.86625 8.91888 2.11117L2.72888 16.1112C2.51868 16.5918 2.5057 17.1357 2.69276 17.6258C2.87981 18.1159 3.25191 18.5129 3.72888 18.7312C6.44888 20.0112 11.8589 22.5612 16.7289 24.9112C34.2889 33.4112 49.1789 32.8412 60.5689 14.3312Z" fill="url(#paint1_linear_777_5)"/>
<defs>
<linearGradient id="paint0_linear_777_5" x1="59.7288" y1="64.2212" x2="20.3988" y2="41.6213" gradientUnits="userSpaceOnUse">
<stop offset="0.18" stop-color="#0052CC"/>
<stop offset="1" stop-color="#2684FF"/>
</linearGradient>
<linearGradient id="paint1_linear_777_5" x1="3.11888" y1="-3.79883" x2="42.4589" y2="18.8112" gradientUnits="userSpaceOnUse">
<stop offset="0.18" stop-color="#0052CC"/>
<stop offset="1" stop-color="#2684FF"/>
</linearGradient>
</defs>
</svg>
