<svg width="280" height="280" viewBox="0 0 280 280" fill="#1B1F23" xmlns="http://www.w3.org/2000/svg">
<path d="M147.394 234.519C143.619 234.522 139.846 234.316 136.093 233.903C124.394 244.455 109.192 250.284 93.4376 250.258H29.6904V185.966C29.786 169.223 36.4958 153.197 48.3574 141.379L72.2638 117.473C82.1029 107.626 94.8937 101.269 108.684 99.3728C122.474 97.4762 136.506 100.144 148.638 106.969C160.77 113.794 170.335 124.402 175.874 137.172C181.413 149.943 182.621 164.175 179.314 177.696C181.876 175.895 184.281 173.881 186.505 171.676L209.775 148.396C206.806 128.723 197.606 110.521 183.526 96.4636C165.98 78.9541 142.204 69.1205 117.416 69.1205C92.6278 69.1205 68.8521 78.9541 51.3059 96.4636L27.3789 120.401C9.96867 137.752 0.126684 161.284 0 185.864V280H93.4889C105.77 280.024 117.934 277.617 129.28 272.918C140.627 268.219 150.931 261.321 159.599 252.621L183.495 228.714C183.865 228.355 184.194 227.975 184.522 227.615C172.683 232.203 160.092 234.544 147.394 234.519Z" fill="black"/>
<path d="M102.293 177.706C94.5534 169.957 88.9379 160.347 85.9871 149.8C83.0364 139.252 82.8496 128.123 85.4448 117.483C82.8829 119.284 80.4772 121.298 78.2534 123.503L55.025 146.783C57.9982 166.457 67.2018 184.659 81.2841 198.716C98.8302 216.225 122.606 226.059 147.394 226.059C172.182 226.059 195.958 216.225 213.504 198.716L252.656 159.563C270.163 142.016 279.995 118.24 279.995 93.4532C279.995 68.6659 270.163 44.8907 252.656 27.3432C235.11 9.83366 211.335 0 186.546 0C161.758 0 137.983 9.83366 120.436 27.3432L81.2943 66.4955C80.9245 66.8551 80.5957 67.2352 80.267 67.5948C92.0986 62.9997 104.682 60.6481 117.375 60.6602C121.095 60.6618 124.812 60.8607 128.511 61.256L141.415 48.3628C153.385 36.4179 169.605 29.7095 186.516 29.7095C203.426 29.7095 219.646 36.4179 231.616 48.3628C243.561 60.333 250.27 76.5529 250.27 93.4635C250.27 110.374 243.561 126.594 231.616 138.564L192.474 177.706C180.504 189.651 164.284 196.359 147.374 196.359C130.463 196.359 114.243 189.651 102.273 177.706" fill="black"/>
</svg>
