<svg width="2840" height="645" viewBox="0 0 2840 645" fill="none" xmlns="http://www.w3.org/2000/svg">
<g clip-path="url(#clip0_986_17)">
<path d="M805.926 81.6364H919.705L1039.88 374.818H1044.99L1165.16 81.6364H1278.94V518H1189.45V233.98H1185.83L1072.9 515.869H1011.96L899.037 232.915H895.415V518H805.926V81.6364ZM1329.25 518V190.727H1420.01V518H1329.25ZM1374.84 148.54C1361.35 148.54 1349.77 144.065 1340.11 135.116C1330.59 126.026 1325.84 115.159 1325.84 102.517C1325.84 90.017 1330.59 79.2926 1340.11 70.3438C1349.77 61.2528 1361.35 56.7074 1374.84 56.7074C1388.34 56.7074 1399.84 61.2528 1409.36 70.3438C1419.02 79.2926 1423.85 90.017 1423.85 102.517C1423.85 115.159 1419.02 126.026 1409.36 135.116C1399.84 144.065 1388.34 148.54 1374.84 148.54ZM1559.49 328.795V518H1468.72V190.727H1555.23V248.469H1559.06C1566.31 229.435 1578.45 214.378 1595.5 203.298C1612.54 192.077 1633.21 186.466 1657.5 186.466C1680.23 186.466 1700.04 191.437 1716.95 201.381C1733.85 211.324 1746.99 225.528 1756.36 243.994C1765.74 262.318 1770.43 284.193 1770.43 309.619V518H1679.66V325.812C1679.8 305.784 1674.69 290.159 1664.32 278.938C1653.95 267.574 1639.67 261.892 1621.49 261.892C1609.28 261.892 1598.48 264.52 1589.11 269.776C1579.87 275.031 1572.63 282.702 1567.37 292.787C1562.26 302.73 1559.63 314.733 1559.49 328.795ZM1992.04 190.727V258.909H1794.95V190.727H1992.04ZM1839.7 112.318H1930.46V417.432C1930.46 425.812 1931.74 432.347 1934.3 437.034C1936.86 441.58 1940.41 444.776 1944.95 446.622C1949.64 448.469 1955.04 449.392 1961.15 449.392C1965.41 449.392 1969.67 449.037 1973.93 448.327C1978.19 447.474 1981.46 446.835 1983.73 446.409L1998.01 513.952C1993.46 515.372 1987.07 517.006 1978.83 518.852C1970.59 520.841 1960.58 522.048 1948.79 522.474C1926.91 523.327 1907.74 520.415 1891.26 513.739C1874.92 507.062 1862.21 496.693 1853.12 482.631C1844.03 468.568 1839.55 450.812 1839.7 429.364V112.318ZM2124.97 81.6364V518H2034.2V81.6364H2124.97ZM2173.67 518V190.727H2264.44V518H2173.67ZM2219.27 148.54C2205.78 148.54 2194.2 144.065 2184.54 135.116C2175.02 126.026 2170.27 115.159 2170.27 102.517C2170.27 90.017 2175.02 79.2926 2184.54 70.3438C2194.2 61.2528 2205.78 56.7074 2219.27 56.7074C2232.77 56.7074 2244.27 61.2528 2253.79 70.3438C2263.45 79.2926 2268.28 90.017 2268.28 102.517C2268.28 115.159 2263.45 126.026 2253.79 135.116C2244.27 144.065 2232.77 148.54 2219.27 148.54ZM2489.15 190.727V258.909H2287.16V190.727H2489.15ZM2333.39 518V167.077C2333.39 143.355 2338.01 123.682 2347.24 108.057C2356.62 92.4318 2369.4 80.713 2385.59 72.9005C2401.79 65.088 2420.18 61.1818 2440.78 61.1818C2454.7 61.1818 2467.41 62.2471 2478.92 64.3778C2490.57 66.5085 2499.23 68.4261 2504.91 70.1307L2488.72 138.312C2485.17 137.176 2480.76 136.111 2475.51 135.116C2470.4 134.122 2465.14 133.625 2459.74 133.625C2446.39 133.625 2437.09 136.75 2431.83 143C2426.57 149.108 2423.95 157.702 2423.95 168.781V518H2333.39ZM2576.63 640.727C2565.13 640.727 2554.33 639.804 2544.25 637.957C2534.3 636.253 2526.07 634.051 2519.53 631.352L2539.99 563.597C2550.64 566.864 2560.23 568.639 2568.75 568.923C2577.41 569.207 2584.87 567.219 2591.12 562.957C2597.51 558.696 2602.7 551.452 2606.68 541.224L2612 527.375L2494.6 190.727H2590.06L2657.81 431.068H2661.22L2729.62 190.727H2825.71L2698.51 553.369C2692.4 570.983 2684.09 586.324 2673.58 599.392C2663.21 612.602 2650.07 622.759 2634.16 629.861C2618.25 637.105 2599.08 640.727 2576.63 640.727Z" fill="white"/>
<g clip-path="url(#clip1_986_17)">
<path d="M193.24 242.372C193.655 185.901 216.05 131.812 255.676 91.5762H255.603L102.617 244.562H102.69C102.121 245.01 101.584 245.499 101.083 246.023C63.8774 283.18 41.3199 332.509 37.5506 384.957C33.7814 437.405 49.0533 489.453 80.5636 531.548L235.083 377.029L236.69 375.495C207.89 337.143 192.611 290.329 193.24 242.372V242.372Z" fill="#0C8C5E"/>
<path d="M564.715 400.688C535.435 429.384 498.68 449.275 458.642 458.094C418.604 466.912 376.894 464.303 338.267 450.564C317.672 443.253 298.316 432.836 280.869 419.675L279.263 421.281L124.743 575.728C166.856 607.16 218.876 622.383 271.29 618.616C323.704 614.848 373.011 592.34 410.196 555.208L411.729 553.675L564.715 400.688Z" fill="#0C8C5E"/>
<path d="M630.292 244.562V34.0001C630.292 29.5818 626.71 26.0001 622.292 26.0001H411.73C383.025 25.9714 354.598 31.6143 328.08 42.6047C301.563 53.5951 277.478 69.7164 257.21 90.0426L255.677 91.5761C228.961 118.698 209.846 152.369 200.251 189.21C217.621 184.712 235.471 182.333 253.413 182.126C301.372 181.562 348.173 196.863 386.536 225.649C421.015 251.362 447.11 286.706 461.532 327.226C476.231 368.642 478.164 413.515 467.082 456.041C503.93 446.462 537.604 427.345 564.716 400.616L566.25 399.155C586.584 378.878 602.711 354.782 613.701 328.251C624.692 301.721 630.33 273.279 630.292 244.562Z" fill="#18E299"/>
</g>
</g>
<defs>
<clipPath id="clip0_986_17">
<rect width="2840" height="645" fill="white"/>
</clipPath>
<clipPath id="clip1_986_17">
<rect width="593" height="593" fill="white" transform="translate(37 26)"/>
</clipPath>
</defs>
</svg>
