<svg width="1000" height="1000" viewBox="0 0 1000 1000" fill="none" xmlns="http://www.w3.org/2000/svg">
<g clip-path="url(#clip0_1_227)">
<path d="M263.474 364.877C264.173 269.647 301.939 178.435 368.762 110.584H368.639L110.652 368.571H110.775C109.815 369.326 108.91 370.15 108.066 371.034C45.3243 433.694 7.28455 516.88 0.928295 605.324C-5.42796 693.769 20.3257 781.539 73.4628 852.527L334.036 591.954L336.745 589.368C288.179 524.694 262.413 445.749 263.474 364.877Z" fill="#0C8C5E"/>
<path d="M889.909 631.853C840.531 680.243 778.55 713.786 711.033 728.657C643.515 743.528 573.177 739.128 508.039 715.96C473.309 703.631 440.668 686.065 411.247 663.87L408.538 666.579L147.965 927.029C218.982 980.033 306.705 1005.71 395.093 999.352C483.482 992.998 566.63 955.043 629.336 892.426L631.922 889.839L889.909 631.853Z" fill="#0C8C5E"/>
<path d="M1000.49 368.57V8.00019C1000.49 3.58191 996.91 0.000184428 992.492 0.000184428H631.922C583.516 -0.0483109 535.577 9.46754 490.86 28.0011C446.143 46.5347 405.528 73.7207 371.349 107.998L368.763 110.584C323.71 156.321 291.477 213.1 275.296 275.227C304.588 267.642 334.69 263.631 364.945 263.282C445.821 262.33 524.743 288.133 589.437 336.676C647.58 380.036 691.585 439.638 715.906 507.97C740.693 577.81 743.953 653.482 725.265 725.196C787.403 709.042 844.189 676.805 889.909 631.73L892.495 629.267C926.786 595.073 953.981 554.438 972.515 509.698C991.049 464.959 1000.56 416.997 1000.49 368.57Z" fill="#18E299"/>
</g>
<defs>
<clipPath id="clip0_1_227">
<rect width="1000" height="1000" fill="white"/>
</clipPath>
</defs>
</svg>
