<svg width="512" height="512" viewBox="0 0 512 512" fill="none" xmlns="http://www.w3.org/2000/svg">
<path fill-rule="evenodd" clip-rule="evenodd" d="M317.6 168H344C346.122 168 348.157 168.843 349.657 170.343C351.157 171.843 352 173.878 352 176V208C352 210.122 351.157 212.157 349.657 213.657C348.157 215.157 346.122 216 344 216H317.6C314.327 233.128 307.586 249.405 297.792 263.832L316.448 282.496C317.948 283.996 318.79 286.031 318.79 288.152C318.79 290.273 317.948 292.308 316.448 293.808L293.824 316.432C292.324 317.932 290.289 318.774 288.168 318.774C286.047 318.774 284.012 317.932 282.512 316.432L263.848 297.776C249.417 307.578 233.134 314.324 216 317.6V344C216 346.122 215.157 348.157 213.657 349.657C212.157 351.157 210.122 352 208 352H176C173.878 352 171.843 351.157 170.343 349.657C168.843 348.157 168 346.122 168 344V317.6C150.867 314.329 134.584 307.588 120.152 297.792L101.488 316.448C99.9878 317.948 97.9533 318.79 95.832 318.79C93.7107 318.79 91.6762 317.948 90.176 316.448L67.552 293.824C66.0522 292.324 65.2097 290.289 65.2097 288.168C65.2097 286.047 66.0522 284.012 67.552 282.512L86.224 263.848C76.4222 249.417 69.6759 233.134 66.4 216H40C37.8783 216 35.8434 215.157 34.3431 213.657C32.8429 212.157 32 210.122 32 208V176C32 173.878 32.8429 171.843 34.3431 170.343C35.8434 168.843 37.8783 168 40 168H66.4C69.671 150.867 76.4118 134.584 86.208 120.152L67.552 101.488C66.0522 99.9878 65.2097 97.9533 65.2097 95.832C65.2097 93.7107 66.0522 91.6762 67.552 90.176L90.176 67.552C91.6762 66.0522 93.7107 65.2097 95.832 65.2097C97.9533 65.2097 99.9878 66.0522 101.488 67.552L120.152 86.224C134.583 76.4222 150.866 69.6759 168 66.4V40C168 37.8783 168.843 35.8434 170.343 34.3431C171.843 32.8429 173.878 32 176 32H208C210.122 32 212.157 32.8429 213.657 34.3431C215.157 35.8434 216 37.8783 216 40V66.4C233.133 69.671 249.416 76.4118 263.848 86.208L282.512 67.552C284.012 66.0522 286.047 65.2097 288.168 65.2097C290.289 65.2097 292.324 66.0522 293.824 67.552L316.432 90.176C317.932 91.6762 318.774 93.7107 318.774 95.832C318.774 97.9533 317.932 99.9878 316.432 101.488L297.776 120.152C307.578 134.583 314.324 150.866 317.6 168ZM256 192C256 227.346 227.346 256 192 256C156.654 256 128 227.346 128 192C128 156.654 156.654 128 192 128C227.346 128 256 156.654 256 192Z" fill="#F1F3F2"/>
<path fill-rule="evenodd" clip-rule="evenodd" d="M459.464 366.736H472C474.122 366.736 476.157 367.579 477.657 369.079C479.157 370.579 480 372.614 480 374.736V393.264C480 395.386 479.157 397.421 477.657 398.921C476.157 400.421 474.122 401.264 472 401.264H459.504C457.563 409.725 454.215 417.8 449.6 425.152L458.4 434.016C459.891 435.523 460.727 437.557 460.727 439.676C460.727 441.795 459.891 443.829 458.4 445.336L445.336 458.4C443.829 459.891 441.795 460.727 439.676 460.727C437.557 460.727 435.523 459.891 434.016 458.4L425.152 449.6C417.797 454.201 409.722 457.536 401.264 459.464V472C401.264 474.122 400.421 476.157 398.921 477.657C397.421 479.157 395.386 480 393.264 480H374.736C372.614 480 370.579 479.157 369.079 477.657C367.579 476.157 366.736 474.122 366.736 472V459.504C358.275 457.563 350.2 454.215 342.848 449.6L333.984 458.4C332.453 459.844 330.428 460.648 328.324 460.648C326.22 460.648 324.195 459.844 322.664 458.4L309.6 445.336C308.109 443.829 307.273 441.795 307.273 439.676C307.273 437.557 308.109 435.523 309.6 434.016L318.44 425.152C313.825 417.8 310.477 409.725 308.536 401.264H296C293.878 401.264 291.843 400.421 290.343 398.921C288.843 397.421 288 395.386 288 393.264V374.736C288 372.614 288.843 370.579 290.343 369.079C291.843 367.579 293.878 366.736 296 366.736H308.568C310.509 358.275 313.857 350.2 318.472 342.848L309.6 333.984C308.109 332.477 307.273 330.443 307.273 328.324C307.273 326.205 308.109 324.171 309.6 322.664L322.664 309.6C324.171 308.109 326.205 307.273 328.324 307.273C330.443 307.273 332.477 308.109 333.984 309.6L342.848 318.44C350.2 313.825 358.275 310.477 366.736 308.536V296C366.736 293.878 367.579 291.843 369.079 290.343C370.579 288.843 372.614 288 374.736 288H393.264C395.386 288 397.421 288.843 398.921 290.343C400.421 291.843 401.264 293.878 401.264 296V308.568C409.725 310.509 417.8 313.857 425.152 318.472L434.016 309.6C435.547 308.156 437.572 307.352 439.676 307.352C441.78 307.352 443.805 308.156 445.336 309.6L458.4 322.664C459.891 324.171 460.727 326.205 460.727 328.324C460.727 330.443 459.891 332.477 458.4 333.984L449.6 342.848C454.201 350.203 457.536 358.278 459.464 366.736ZM424.424 384C424.424 406.326 406.326 424.424 384 424.424C361.674 424.424 343.576 406.326 343.576 384C343.576 361.675 361.674 343.576 384 343.576C406.326 343.576 424.424 361.675 424.424 384Z" fill="#EBEDEB"/>
<path d="M205.656 434.344L189.656 418.344C188.147 416.887 186.126 416.08 184.029 416.099C181.931 416.117 179.925 416.958 178.441 418.441C176.958 419.925 176.117 421.931 176.099 424.029C176.08 426.126 176.887 428.147 178.344 429.656L179.632 430.944C160.808 427.987 143.657 418.413 131.26 403.942C118.863 389.472 112.034 371.054 112 352V351.576C111.995 350.537 111.783 349.509 111.376 348.553C110.97 347.597 110.377 346.731 109.632 346.006C108.888 345.282 108.006 344.713 107.039 344.333C106.072 343.952 105.039 343.769 104 343.792C101.857 343.84 99.8191 344.727 98.3232 346.262C96.8273 347.797 95.9932 349.857 96 352C96.0335 375.598 104.748 398.36 120.482 415.947C136.216 433.534 157.871 444.718 181.32 447.368L178.344 450.344C177.58 451.082 176.97 451.965 176.551 452.941C176.132 453.917 175.911 454.967 175.902 456.029C175.893 457.091 176.095 458.144 176.497 459.128C176.9 460.111 177.494 461.004 178.245 461.755C178.996 462.506 179.889 463.1 180.872 463.503C181.856 463.905 182.909 464.107 183.971 464.098C185.033 464.089 186.083 463.868 187.059 463.449C188.035 463.03 188.918 462.42 189.656 461.656L205.656 445.656C207.156 444.156 207.998 442.121 207.998 440C207.998 437.879 207.156 435.844 205.656 434.344Z" fill="#EFEFEF"/>
<path d="M374.472 108.424L377.448 105.448C378.212 104.71 378.822 103.827 379.241 102.851C379.66 101.875 379.881 100.825 379.89 99.7631C379.899 98.7009 379.697 97.6475 379.295 96.6643C378.892 95.6811 378.298 94.7879 377.547 94.0368C376.796 93.2856 375.903 92.6916 374.92 92.2893C373.936 91.8871 372.883 91.6847 371.821 91.6939C370.759 91.7031 369.709 91.9238 368.733 92.3431C367.757 92.7624 366.874 93.3718 366.136 94.1359L350.136 110.136C348.636 111.636 347.794 113.671 347.794 115.792C347.794 117.913 348.636 119.948 350.136 121.448L366.136 137.448C366.874 138.212 367.757 138.821 368.733 139.241C369.709 139.66 370.759 139.881 371.821 139.89C372.883 139.899 373.936 139.697 374.92 139.294C375.903 138.892 376.796 138.298 377.547 137.547C378.298 136.796 378.892 135.903 379.295 134.92C379.697 133.936 379.899 132.883 379.89 131.821C379.881 130.758 379.66 129.709 379.241 128.733C378.822 127.757 378.212 126.874 377.448 126.136L376.16 124.848C394.984 127.805 412.135 137.379 424.532 151.849C436.929 166.32 443.758 184.737 443.792 203.792V204.208C443.795 205.248 444.005 206.277 444.411 207.235C444.817 208.192 445.409 209.059 446.154 209.785C446.9 210.511 447.782 211.081 448.75 211.461C449.718 211.841 450.752 212.024 451.792 212C453.935 211.952 455.973 211.065 457.469 209.53C458.965 207.995 459.799 205.935 459.792 203.792C459.76 180.193 451.047 157.431 435.312 139.843C419.578 122.255 397.922 111.072 374.472 108.424V108.424Z" fill="#EFEFEF"/>
</svg>
