<svg id="Capa_1" enable-background="new 0 0 512 512" height="512" viewBox="0 0 512 512" width="512" xmlns="http://www.w3.org/2000/svg"><g><g><g><path d="m463.603 512h-309.803c-17.069 0-30.905-13.837-30.905-30.905v-450.19c-.001-17.068 13.836-30.905 30.905-30.905h213.757l126.951 126.951v354.143c0 17.069-13.837 30.906-30.905 30.906z" fill="#f7f6f7"/><path d="m463.602 126.951v354.143c0 17.068-13.837 30.905-30.905 30.905h30.905c17.069 0 30.905-13.837 30.905-30.905v-354.143z" fill="#edebed"/><path d="m405.572 104.563h-224.647c-5.69 0-10.302-4.612-10.302-10.302v-37.601c0-5.69 4.612-10.302 10.302-10.302h224.647c5.69 0 10.302 4.612 10.302 10.302v37.602c0 5.689-4.612 10.301-10.302 10.301z" fill="#d3ced4"/><path d="m494.508 157.857h-96.046c-17.069 0-30.905-13.837-30.905-30.905v-96.047z" fill="#edebed"/><path d="m494.508 126.951h-96.046c-17.069 0-30.905-13.837-30.905-30.905v-96.046z" fill="#c4bcc6"/><g><path d="m448.15 178.736h-180.156c-4.268 0-7.726-3.459-7.726-7.726s3.459-7.726 7.726-7.726h180.156c4.268 0 7.726 3.459 7.726 7.726s-3.458 7.726-7.726 7.726z" fill="#d3ced4"/></g><g><path d="m448.15 225.095h-169.358c-4.268 0-7.726-3.459-7.726-7.726s3.459-7.726 7.726-7.726h169.358c4.268 0 7.726 3.459 7.726 7.726s-3.458 7.726-7.726 7.726z" fill="#d3ced4"/></g><g><path d="m448.15 271.453h-169.358c-4.268 0-7.726-3.459-7.726-7.726s3.459-7.726 7.726-7.726h169.358c4.268 0 7.726 3.459 7.726 7.726 0 4.266-3.458 7.726-7.726 7.726z" fill="#d3ced4"/></g><g><path d="m448.15 317.811h-184.811c-4.268 0-7.726-3.459-7.726-7.726s3.459-7.726 7.726-7.726h184.811c4.268 0 7.726 3.459 7.726 7.726s-3.458 7.726-7.726 7.726z" fill="#d3ced4"/></g><g><path d="m448.15 364.169h-231.169c-4.268 0-7.726-3.459-7.726-7.726s3.459-7.726 7.726-7.726h231.169c4.268 0 7.726 3.459 7.726 7.726s-3.458 7.726-7.726 7.726z" fill="#d3ced4"/></g><g><path d="m448.15 410.527h-277.527c-4.268 0-7.726-3.459-7.726-7.726s3.459-7.726 7.726-7.726h277.527c4.268 0 7.726 3.459 7.726 7.726s-3.458 7.726-7.726 7.726z" fill="#d3ced4"/></g><g><path d="m448.15 456.885h-277.527c-4.268 0-7.726-3.459-7.726-7.726s3.459-7.726 7.726-7.726h277.527c4.268 0 7.726 3.459 7.726 7.726s-3.458 7.726-7.726 7.726z" fill="#d3ced4"/></g></g><path d="m122.894 110.26v254.909h25.511c12.605 0 22.859-10.255 22.859-22.86v-4.786c4.76-2.314 9.341-4.967 13.725-7.949l4.092 2.368c3.474 2.009 7.43 3.07 11.441 3.071h.002c8.151 0 15.742-4.387 19.81-11.448l25.509-44.277c6.287-10.9 2.541-24.898-8.355-31.207l-4.142-2.396c.189-2.652.285-5.313.285-7.97s-.096-5.316-.285-7.97l4.147-2.399c10.889-6.304 14.636-20.3 8.355-31.196l-25.514-44.284c-4.068-7.062-11.659-11.45-19.811-11.45-4.01 0-7.967 1.062-11.446 3.073l-4.088 2.365c-4.383-2.981-8.965-5.634-13.725-7.948v-4.787c0-12.605-10.255-22.86-22.859-22.86h-25.511z" fill="#edebed"/><path d="m227.17 265.914-14.724-8.519c-.835-.483-1.258-1.439-1.075-2.385 1.085-5.599 1.657-11.38 1.657-17.296s-.572-11.698-1.657-17.296c-.183-.947.24-1.903 1.075-2.386l14.724-8.519c1.077-.623 1.446-2.001.825-3.079l-25.514-44.285c-.623-1.081-2.005-1.451-3.085-.826l-14.724 8.519c-.838.484-1.883.372-2.612-.265-8.66-7.557-18.774-13.481-29.866-17.3-.913-.314-1.532-1.16-1.532-2.126v-17.033c0-1.246-1.01-2.256-2.256-2.256h-51.023c-1.246 0-2.256 1.01-2.256 2.256v17.033c0 .965-.619 1.812-1.532 2.126-11.092 3.819-21.207 9.742-29.866 17.3-.729.636-1.774.749-2.612.265l-14.724-8.519c-1.08-.625-2.462-.255-3.085.826l-25.514 44.285c-.621 1.078-.252 2.456.825 3.079l14.724 8.519c.835.483 1.258 1.439 1.075 2.386-1.084 5.598-1.656 11.379-1.656 17.296 0 5.916.572 11.697 1.656 17.296.183.947-.24 1.902-1.075 2.385l-14.724 8.519c-1.077.623-1.446 2.001-.825 3.079l25.514 44.285c.623 1.081 2.005 1.451 3.085.826l14.724-8.519c.838-.485 1.883-.372 2.612.265 8.66 7.557 18.774 13.481 29.866 17.299.913.314 1.532 1.161 1.532 2.126v17.032c0 1.246 1.01 2.257 2.256 2.257h51.022c1.246 0 2.256-1.01 2.256-2.257v-17.033c0-.965.619-1.811 1.532-2.126 11.092-3.819 21.206-9.742 29.866-17.299.729-.637 1.774-.749 2.612-.265l14.724 8.519c1.08.625 2.462.255 3.085-.826l25.514-44.285c.622-1.077.253-2.454-.824-3.078z" fill="#ffc269"/><ellipse cx="122.894" cy="237.714" fill="#fff" rx="41.958" ry="41.959" transform="matrix(.987 -.16 .16 .987 -36.491 22.755)"/></g><path d="m227.17 265.914-14.724-8.519c-.835-.483-1.258-1.439-1.075-2.385 1.085-5.599 1.657-11.38 1.657-17.296s-.572-11.698-1.657-17.296c-.183-.947.24-1.903 1.075-2.386l14.724-8.519c1.077-.623 1.446-2.001.825-3.079l-25.514-44.285c-.623-1.081-2.005-1.451-3.085-.826l-14.724 8.519c-.838.484-1.883.372-2.612-.265-8.66-7.557-18.774-13.481-29.866-17.3-.913-.314-1.532-1.16-1.532-2.126v-17.033c0-1.246-1.01-2.256-2.256-2.256h-51.023c-1.246 0-2.256 1.01-2.256 2.256v.385c46.429 12.712 80.553 55.199 80.553 105.662 0 49.929-33.403 92.051-79.079 105.251.245.091.506.147.782.147h51.022c1.246 0 2.256-1.01 2.256-2.257v-17.033c0-.965.619-1.811 1.532-2.126 11.092-3.819 21.206-9.742 29.866-17.299.729-.637 1.774-.749 2.612-.265l14.724 8.519c1.08.625 2.462.255 3.085-.826l25.514-44.285c.622-1.076.253-2.453-.824-3.077z" fill="#ffa95f"/></g></svg>