<svg width="405" height="405" viewBox="0 0 405 405" fill="none" xmlns="http://www.w3.org/2000/svg">
<path d="M98.32 101.04C98.32 84.144 112.144 70.32 129.04 70.32H333.85V44.72C333.85 27.824 320.026 14 303.13 14H72.72C55.824 14 42 27.824 42 44.72V331.44C42 348.336 55.824 362.16 72.72 362.16H98.32V101.04Z" fill="#0C8C5E"/>
<path d="M361.695 72.72C361.695 55.824 347.871 42 330.975 42H100.565C83.669 42 69.845 55.824 69.845 72.72V359.44C69.845 376.336 83.669 390.16 100.565 390.16H274.63L361.67 308.24L361.695 72.72Z" fill="#EDEEEE"/>
<path d="M305.355 308.24H361.675L274.635 390.16V338.96C274.635 322.064 288.459 308.24 305.355 308.24Z" fill="#F2F2F2"/>
<path d="M146.645 177.68H284.885C289.13 177.68 292.565 174.239 292.565 170C292.565 165.756 289.129 162.32 284.885 162.32H146.645C142.401 162.32 138.965 165.756 138.965 170C138.965 174.239 142.4 177.68 146.645 177.68Z" fill="#1F4254"/>
<path d="M146.645 126.48H284.885C289.13 126.48 292.565 123.039 292.565 118.8C292.565 114.556 289.129 111.12 284.885 111.12H146.645C142.401 111.12 138.965 114.556 138.965 118.8C138.965 123.039 142.4 126.48 146.645 126.48Z" fill="#1F4254"/>
<path d="M146.645 228.88H284.885C289.13 228.88 292.565 225.439 292.565 221.2C292.565 216.956 289.129 213.52 284.885 213.52H146.645C142.401 213.52 138.965 216.956 138.965 221.2C138.965 225.439 142.4 228.88 146.645 228.88Z" fill="#1F4254"/>
<path d="M146.645 280.08H223.445C227.689 280.08 231.125 276.639 231.125 272.4C231.125 268.155 227.689 264.72 223.445 264.72H146.645C142.401 264.72 138.965 268.155 138.965 272.4C138.965 276.639 142.4 280.08 146.645 280.08Z" fill="#1F4254"/>
</svg>
