<svg width="512" height="512" viewBox="0 0 512 512" fill="none" xmlns="http://www.w3.org/2000/svg">
<path d="M391.046 464.307H126.041C114.661 464.307 105.437 455.083 105.437 443.703V63.21H71.2885C58.8203 63.21 48.7132 73.3171 48.7132 85.7853V489.426C48.7132 501.893 58.8203 512 71.2885 512H368.472C380.94 512 391.047 501.893 391.047 489.425V464.307H391.046Z" fill="#F8F8F8"/>
<path d="M427.167 428.186H162.161C150.781 428.186 141.557 418.962 141.557 407.583V36.1201H107.409C94.9415 36.1201 84.8344 46.2272 84.8344 58.6955V462.335C84.8344 474.803 94.9415 484.91 107.409 484.91H404.592C417.061 484.91 427.168 474.803 427.168 462.335V428.186H427.167Z" fill="#F1F1F1"/>
<path d="M141.557 36.1201V407.583C141.557 418.962 150.781 428.186 162.161 428.186H427.167V462.335C427.167 464.173 426.942 465.956 426.528 467.666H143.528C131.061 467.666 120.954 457.559 120.954 445.091V426.215L131.255 397.715V41.4513L141.557 36.1201Z" fill="#ECECEB"/>
<path d="M438.651 448.79H143.528C131.061 448.79 120.954 438.683 120.954 426.215V22.5754C120.954 10.1071 131.061 0 143.528 0H371.833L461.225 91.4533V426.215C461.226 438.683 451.119 448.79 438.651 448.79V448.79Z" fill="#F8F8F8"/>
<path d="M432.381 60.5479V426.215C432.381 438.683 422.274 448.79 409.807 448.79H440.713C453.181 448.79 463.287 438.683 463.287 426.215V91.4533L432.381 60.5479Z" fill="#F1F4F1"/>
<path d="M463.287 91.4533H394.405C381.94 91.4533 371.834 81.3482 371.834 68.882V0L463.287 91.4533Z" fill="#ECECEC"/>
<path d="M395.219 174.856H189.022C184.755 174.856 181.295 171.396 181.295 167.129C181.295 162.862 184.755 159.403 189.022 159.403H395.219C399.486 159.403 402.945 162.862 402.945 167.129C402.945 171.396 399.486 174.856 395.219 174.856Z" fill="#ECECEC"/>
<path d="M395.219 232.121H189.022C184.755 232.121 181.295 228.662 181.295 224.395C181.295 220.128 184.755 216.669 189.022 216.669H395.219C399.486 216.669 402.945 220.128 402.945 224.395C402.945 228.662 399.486 232.121 395.219 232.121Z" fill="#ECECEC"/>
<path d="M395.219 289.387H189.022C184.755 289.387 181.295 285.928 181.295 281.661C181.295 277.394 184.755 273.934 189.022 273.934H395.219C399.486 273.934 402.945 277.394 402.945 281.661C402.945 285.928 399.486 289.387 395.219 289.387Z" fill="#ECECEC"/>
</svg>
