<svg id="Capa_1" enable-background="new 0 0 512 512" height="512" viewBox="0 0 512 512" width="512" xmlns="http://www.w3.org/2000/svg"><g><path d="m350.741 427.664h-284.135c-17.069 0-30.905-13.837-30.905-30.905v-365.854c-.001-17.068 13.836-30.905 30.905-30.905h284.136c17.069 0 30.905 13.837 30.905 30.905v365.853c0 17.069-13.837 30.906-30.906 30.906z" fill="#f7f6f7"/><path d="m350.741 0h-30.905c17.069 0 30.905 13.837 30.905 30.905v365.853c0 17.069-13.837 30.905-30.905 30.905h30.905c17.069 0 30.905-13.837 30.905-30.905v-365.853c.001-17.068-13.836-30.905-30.905-30.905z" fill="#edebed"/><path d="m377.046 512h-346.141c-17.068 0-30.905-13.837-30.905-30.905v-264.757c0-17.069 13.837-30.905 30.905-30.905h150.759c12.291 0 23.004 8.365 25.985 20.288l5.308 21.234c2.981 11.924 13.694 20.288 25.985 20.288h138.103c17.069 0 30.905 13.837 30.905 30.905v202.946c.002 17.069-13.835 30.906-30.904 30.906z" fill="#ffe07d"/><g fill="#ffd064"><path d="m377.046 247.243h-30.905c17.069 0 30.905 13.837 30.905 30.905v202.946c0 17.069-13.837 30.905-30.905 30.905h30.905c17.069 0 30.905-13.837 30.905-30.905v-202.945c.001-17.069-13.836-30.906-30.905-30.906z"/><path d="m176.744 205.721 5.308 21.234c2.981 11.924 13.694 20.288 25.985 20.288h30.905c-12.291 0-23.004-8.365-25.985-20.288l-5.308-21.234c-2.981-11.924-13.694-20.288-25.985-20.288h-30.905c12.291 0 23.004 8.364 25.985 20.288z"/></g><g><path d="m314.057 54.085h-223.76c-4.267 0-7.726-3.459-7.726-7.726s3.459-7.726 7.726-7.726h223.76c4.268 0 7.726 3.459 7.726 7.726s-3.458 7.726-7.726 7.726z" fill="#a198a4"/></g><g><path d="m267.699 100.443h-177.402c-4.267 0-7.726-3.459-7.726-7.726s3.459-7.726 7.726-7.726h177.402c4.268 0 7.726 3.459 7.726 7.726.001 4.266-3.458 7.726-7.726 7.726z" fill="#a198a4"/></g><g><path d="m252.246 146.801h-161.949c-4.267 0-7.726-3.459-7.726-7.726s3.459-7.726 7.726-7.726h161.949c4.267 0 7.726 3.459 7.726 7.726s-3.458 7.726-7.726 7.726z" fill="#a198a4"/></g><g><g><path d="m318.551 236.809h40.051v84.181h-40.051z" fill="#a198a4" transform="matrix(-.866 -.5 .5 -.866 492.343 689.723)"/><path d="m240.943 448.007c16.614 9.592 37.858 3.9 47.45-12.714l61.498-106.518c4.062-7.036 1.651-16.032-5.384-20.094l-34.685-20.025c-7.036-4.062-16.032-1.651-20.094 5.384l-61.498 106.518c-9.593 16.613-3.901 37.857 12.713 47.449z" fill="#655e68"/><path d="m344.506 308.681-34.685-20.026c-7.036-4.062-16.032-1.651-20.094 5.384l-.371.643 24.245 13.998c7.036 4.062 9.446 13.059 5.384 20.094l-61.498 106.518c-3.552 6.152-8.703 10.802-14.624 13.737 16.297 8.112 36.303 2.244 45.529-13.737l61.498-106.518c4.063-7.035 1.652-16.032-5.384-20.093z" fill="#544f57"/></g><g><path d="m319.573 271.765c10.374 8.357 22.042 15.17 34.654 20.08l22.738-39.384-34.685-20.025z" fill="#8b808e"/><ellipse cx="401.61" cy="169.723" fill="#a4ccff" rx="110.39" ry="110.39" transform="matrix(.397 -.918 .918 .397 86.294 470.842)"/><path d="m401.61 59.333c-5.244 0-10.401.376-15.453 1.087 53.579 7.539 94.937 53.678 94.937 109.304 0 55.625-41.358 101.764-94.937 109.303 5.051.711 10.208 1.087 15.453 1.087 60.869 0 110.39-49.521 110.39-110.39 0-60.87-49.521-110.391-110.39-110.391z" fill="#8bb3ea"/><ellipse cx="401.61" cy="169.723" fill="#e6ecf8" rx="68.252" ry="68.251" transform="matrix(.971 -.241 .241 .971 -29.036 101.6)"/><path d="m401.61 101.472c-5.316 0-10.484.631-15.453 1.786 30.212 7.023 52.799 34.147 52.799 66.466 0 32.318-22.587 59.442-52.799 66.465 4.969 1.155 10.137 1.786 15.453 1.786 37.634 0 68.251-30.617 68.251-68.251 0-37.635-30.617-68.252-68.251-68.252z" fill="#d7e1f3"/></g></g></g></svg>