<svg width="231" height="38" viewBox="0 0 231 38" fill="none" xmlns="http://www.w3.org/2000/svg">
<rect width="231" height="38" rx="6" fill="#3F8A62"/>
<path d="M84.3842 16.5746C84.2955 16.2869 84.1729 16.0295 84.0167 15.8022C83.864 15.5714 83.6793 15.3743 83.4627 15.2109C83.2496 15.0476 83.0046 14.9251 82.7276 14.8434C82.4506 14.7582 82.1488 14.7156 81.8221 14.7156C81.2362 14.7156 80.7141 14.8629 80.256 15.1577C79.7979 15.4524 79.4375 15.8857 79.1747 16.4574C78.9155 17.0256 78.7859 17.718 78.7859 18.5348C78.7859 19.3587 78.9155 20.0565 79.1747 20.6282C79.4339 21.1999 79.7944 21.6349 80.256 21.9332C80.7177 22.228 81.2539 22.3754 81.8647 22.3754C82.4187 22.3754 82.8981 22.2688 83.3029 22.0558C83.7113 21.8427 84.0256 21.5408 84.2457 21.1502C84.4659 20.756 84.576 20.2944 84.576 19.7653L85.0234 19.8345H82.0618V18.2898H86.4883V19.6001C86.4883 20.5341 86.2894 21.342 85.8917 22.0238C85.494 22.7056 84.9471 23.2312 84.2511 23.6005C83.555 23.9663 82.756 24.1491 81.854 24.1491C80.8491 24.1491 79.9666 23.9237 79.2067 23.4727C78.4503 23.0181 77.859 22.3736 77.4329 21.5391C77.0103 20.701 76.799 19.7067 76.799 18.5561C76.799 17.6754 76.9233 16.8888 77.1719 16.1964C77.424 15.5039 77.7756 14.9162 78.2266 14.4332C78.6776 13.9467 79.2067 13.5774 79.8139 13.3253C80.4212 13.0696 81.0817 12.9418 81.7955 12.9418C82.3991 12.9418 82.962 13.0305 83.484 13.2081C84.006 13.3821 84.4695 13.6307 84.8743 13.9538C85.2827 14.277 85.6183 14.6605 85.881 15.1044C86.1438 15.5483 86.3161 16.0384 86.3977 16.5746H84.3842ZM91.3362 24.1598C90.5159 24.1598 89.8074 23.9893 89.2108 23.6484C88.6178 23.304 88.1615 22.8175 87.8418 22.1889C87.5222 21.5568 87.3624 20.8129 87.3624 19.957C87.3624 19.1154 87.5222 18.3768 87.8418 17.7411C88.165 17.1019 88.616 16.6048 89.1948 16.2496C89.7737 15.891 90.4537 15.7116 91.235 15.7116C91.7392 15.7116 92.2151 15.7933 92.6625 15.9567C93.1135 16.1165 93.5112 16.3651 93.8557 16.7024C94.2037 17.0398 94.4771 17.4695 94.676 17.9915C94.8749 18.5099 94.9743 19.1278 94.9743 19.8452V20.4364H88.268V19.1367H93.1259C93.1224 18.7674 93.0425 18.4389 92.8862 18.1513C92.73 17.8601 92.5116 17.631 92.2311 17.4641C91.9541 17.2972 91.6309 17.2138 91.2616 17.2138C90.8674 17.2138 90.5212 17.3097 90.2229 17.5014C89.9246 17.6896 89.692 17.9382 89.5251 18.2472C89.3617 18.5526 89.2783 18.8881 89.2747 19.2539V20.3885C89.2747 20.8643 89.3617 21.2727 89.5357 21.6136C89.7097 21.951 89.953 22.2102 90.2655 22.3913C90.578 22.5689 90.9438 22.6577 91.3628 22.6577C91.6433 22.6577 91.8972 22.6186 92.1245 22.5405C92.3518 22.4588 92.5489 22.3398 92.7158 22.1836C92.8827 22.0273 93.0088 21.8338 93.094 21.603L94.8944 21.8054C94.7808 22.2812 94.5642 22.6967 94.2445 23.0518C93.9285 23.4034 93.5237 23.6768 93.0301 23.8722C92.5365 24.0639 91.9718 24.1598 91.3362 24.1598ZM100.091 15.8182V17.3097H95.3877V15.8182H100.091ZM96.5489 13.858H98.4772V21.5391C98.4772 21.7983 98.5163 21.9972 98.5944 22.1357C98.6761 22.2706 98.7826 22.3629 98.914 22.4126C99.0454 22.4624 99.191 22.4872 99.3508 22.4872C99.4715 22.4872 99.5816 22.4783 99.681 22.4606C99.784 22.4428 99.8621 22.4268 99.9154 22.4126L100.24 23.9201C100.137 23.9556 99.99 23.9947 99.7982 24.0373C99.61 24.0799 99.3792 24.1048 99.1058 24.1119C98.6228 24.1261 98.1878 24.0533 97.8007 23.8935C97.4136 23.7301 97.1065 23.478 96.8792 23.1371C96.6555 22.7962 96.5454 22.37 96.5489 21.8587V13.858ZM110.238 16.0898C110.189 15.6246 109.979 15.2624 109.61 15.0032C109.244 14.744 108.768 14.6143 108.182 14.6143C107.77 14.6143 107.417 14.6765 107.122 14.8008C106.828 14.9251 106.602 15.0937 106.446 15.3068C106.29 15.5199 106.21 15.7631 106.206 16.0366C106.206 16.2638 106.258 16.4609 106.361 16.6278C106.467 16.7947 106.611 16.9368 106.792 17.054C106.973 17.1676 107.174 17.2635 107.394 17.3416C107.614 17.4197 107.836 17.4854 108.06 17.5387L109.083 17.7944C109.494 17.8903 109.89 18.0199 110.27 18.1832C110.654 18.3466 110.997 18.5526 111.298 18.8011C111.604 19.0497 111.845 19.3498 112.023 19.7013C112.2 20.0529 112.289 20.4648 112.289 20.9371C112.289 21.5763 112.126 22.1392 111.799 22.6257C111.472 23.1087 111 23.4869 110.382 23.7603C109.768 24.0302 109.024 24.1651 108.15 24.1651C107.302 24.1651 106.565 24.0337 105.94 23.771C105.318 23.5082 104.832 23.1246 104.48 22.6204C104.132 22.1161 103.944 21.5018 103.916 20.7773H105.86C105.888 21.1573 106.005 21.4734 106.211 21.7255C106.417 21.9776 106.685 22.1658 107.016 22.2901C107.35 22.4144 107.722 22.4766 108.134 22.4766C108.564 22.4766 108.94 22.4126 109.264 22.2848C109.59 22.1534 109.846 21.9723 110.031 21.7415C110.215 21.5071 110.309 21.2337 110.313 20.9212C110.309 20.6371 110.226 20.4027 110.063 20.218C109.899 20.0298 109.67 19.8736 109.375 19.7493C109.084 19.6214 108.743 19.5078 108.353 19.4084L107.112 19.0888C106.213 18.858 105.503 18.5082 104.981 18.0394C104.462 17.5671 104.203 16.9403 104.203 16.1591C104.203 15.5163 104.377 14.9535 104.725 14.4705C105.077 13.9876 105.554 13.6129 106.158 13.3466C106.762 13.0767 107.445 12.9418 108.209 12.9418C108.983 12.9418 109.661 13.0767 110.244 13.3466C110.83 13.6129 111.29 13.984 111.623 14.4599C111.957 14.9322 112.129 15.4755 112.14 16.0898H110.238ZM117.451 15.8182V17.3097H112.748V15.8182H117.451ZM113.909 13.858H115.837V21.5391C115.837 21.7983 115.876 21.9972 115.955 22.1357C116.036 22.2706 116.143 22.3629 116.274 22.4126C116.406 22.4624 116.551 22.4872 116.711 22.4872C116.832 22.4872 116.942 22.4783 117.041 22.4606C117.144 22.4428 117.222 22.4268 117.276 22.4126L117.6 23.9201C117.498 23.9556 117.35 23.9947 117.158 24.0373C116.97 24.0799 116.739 24.1048 116.466 24.1119C115.983 24.1261 115.548 24.0533 115.161 23.8935C114.774 23.7301 114.467 23.478 114.239 23.1371C114.016 22.7962 113.906 22.37 113.909 21.8587V13.858ZM120.818 24.1651C120.3 24.1651 119.833 24.0728 119.417 23.8881C119.006 23.6999 118.679 23.4229 118.437 23.0572C118.199 22.6914 118.08 22.2404 118.08 21.7042C118.08 21.2425 118.166 20.8608 118.336 20.5589C118.507 20.2571 118.739 20.0156 119.034 19.8345C119.329 19.6534 119.661 19.5167 120.03 19.4244C120.403 19.3285 120.788 19.2592 121.186 19.2166C121.665 19.1669 122.054 19.1225 122.353 19.0835C122.651 19.0408 122.867 18.9769 123.002 18.8917C123.141 18.8029 123.21 18.6662 123.21 18.4815V18.4496C123.21 18.0483 123.091 17.7376 122.853 17.5174C122.615 17.2972 122.273 17.1871 121.825 17.1871C121.353 17.1871 120.978 17.2901 120.701 17.4961C120.428 17.7021 120.243 17.9453 120.147 18.2259L118.347 17.9702C118.489 17.473 118.723 17.0575 119.05 16.7237C119.377 16.3864 119.776 16.1342 120.248 15.9673C120.721 15.7969 121.243 15.7116 121.815 15.7116C122.209 15.7116 122.601 15.7578 122.992 15.8501C123.382 15.9425 123.739 16.0952 124.062 16.3082C124.386 16.5178 124.645 16.8036 124.84 17.1658C125.039 17.5281 125.138 17.9808 125.138 18.5241V24H123.285V22.8761H123.221C123.104 23.1033 122.938 23.3164 122.725 23.5153C122.516 23.7106 122.251 23.8686 121.932 23.9893C121.616 24.1065 121.245 24.1651 120.818 24.1651ZM121.319 22.7482C121.706 22.7482 122.042 22.6719 122.326 22.5192C122.61 22.3629 122.828 22.157 122.981 21.9013C123.137 21.6456 123.215 21.3668 123.215 21.065V20.1009C123.155 20.1506 123.052 20.1967 122.906 20.2393C122.764 20.282 122.605 20.3192 122.427 20.3512C122.25 20.3832 122.074 20.4116 121.9 20.4364C121.726 20.4613 121.575 20.4826 121.447 20.5004C121.159 20.5394 120.902 20.6033 120.675 20.6921C120.447 20.7809 120.268 20.9052 120.137 21.065C120.005 21.2212 119.94 21.4237 119.94 21.6722C119.94 22.0273 120.069 22.2955 120.328 22.4766C120.588 22.6577 120.918 22.7482 121.319 22.7482ZM126.477 24V15.8182H128.347V17.1818H128.432C128.581 16.7095 128.837 16.3455 129.199 16.0898C129.565 15.8306 129.982 15.701 130.451 15.701C130.558 15.701 130.677 15.7063 130.808 15.717C130.943 15.7241 131.055 15.7365 131.143 15.7543V17.5281C131.062 17.4996 130.932 17.4748 130.755 17.4535C130.581 17.4286 130.412 17.4162 130.249 17.4162C129.897 17.4162 129.581 17.4925 129.3 17.6452C129.023 17.7944 128.805 18.0021 128.645 18.2685C128.485 18.5348 128.406 18.842 128.406 19.19V24H126.477ZM136.35 15.8182V17.3097H131.646V15.8182H136.35ZM132.807 13.858H134.736V21.5391C134.736 21.7983 134.775 21.9972 134.853 22.1357C134.934 22.2706 135.041 22.3629 135.172 22.4126C135.304 22.4624 135.449 22.4872 135.609 22.4872C135.73 22.4872 135.84 22.4783 135.939 22.4606C136.042 22.4428 136.121 22.4268 136.174 22.4126L136.499 23.9201C136.396 23.9556 136.248 23.9947 136.057 24.0373C135.868 24.0799 135.638 24.1048 135.364 24.1119C134.881 24.1261 134.446 24.0533 134.059 23.8935C133.672 23.7301 133.365 23.478 133.138 23.1371C132.914 22.7962 132.804 22.37 132.807 21.8587V13.858ZM140.897 24.1598C140.076 24.1598 139.368 23.9893 138.771 23.6484C138.178 23.304 137.722 22.8175 137.402 22.1889C137.083 21.5568 136.923 20.8129 136.923 19.957C136.923 19.1154 137.083 18.3768 137.402 17.7411C137.725 17.1019 138.176 16.6048 138.755 16.2496C139.334 15.891 140.014 15.7116 140.795 15.7116C141.3 15.7116 141.775 15.7933 142.223 15.9567C142.674 16.1165 143.072 16.3651 143.416 16.7024C143.764 17.0398 144.037 17.4695 144.236 17.9915C144.435 18.5099 144.535 19.1278 144.535 19.8452V20.4364H137.828V19.1367H142.686C142.683 18.7674 142.603 18.4389 142.447 18.1513C142.29 17.8601 142.072 17.631 141.791 17.4641C141.514 17.2972 141.191 17.2138 140.822 17.2138C140.428 17.2138 140.082 17.3097 139.783 17.5014C139.485 17.6896 139.252 17.9382 139.085 18.2472C138.922 18.5526 138.839 18.8881 138.835 19.2539V20.3885C138.835 20.8643 138.922 21.2727 139.096 21.6136C139.27 21.951 139.513 22.2102 139.826 22.3913C140.138 22.5689 140.504 22.6577 140.923 22.6577C141.204 22.6577 141.458 22.6186 141.685 22.5405C141.912 22.4588 142.109 22.3398 142.276 22.1836C142.443 22.0273 142.569 21.8338 142.654 21.603L144.455 21.8054C144.341 22.2812 144.125 22.6967 143.805 23.0518C143.489 23.4034 143.084 23.6768 142.59 23.8722C142.097 24.0639 141.532 24.1598 140.897 24.1598ZM148.602 24.1438C147.959 24.1438 147.384 23.9787 146.876 23.6484C146.369 23.3182 145.967 22.8388 145.672 22.2102C145.378 21.5817 145.23 20.8182 145.23 19.9197C145.23 19.0107 145.38 18.2436 145.678 17.6186C145.98 16.9901 146.386 16.516 146.898 16.1964C147.409 15.8732 147.979 15.7116 148.608 15.7116C149.087 15.7116 149.481 15.7933 149.79 15.9567C150.099 16.1165 150.344 16.31 150.525 16.5373C150.706 16.761 150.847 16.9723 150.946 17.1712H151.026V13.0909H152.959V24H151.063V22.7109H150.946C150.847 22.9098 150.703 23.1211 150.514 23.3448C150.326 23.565 150.078 23.7532 149.769 23.9094C149.46 24.0657 149.071 24.1438 148.602 24.1438ZM149.14 22.5618C149.549 22.5618 149.897 22.4517 150.184 22.2315C150.472 22.0078 150.69 21.6971 150.839 21.2994C150.989 20.9016 151.063 20.4382 151.063 19.9091C151.063 19.38 150.989 18.9201 150.839 18.5295C150.694 18.1388 150.477 17.8352 150.19 17.6186C149.905 17.402 149.556 17.2937 149.14 17.2937C148.71 17.2937 148.352 17.4055 148.064 17.6293C147.777 17.853 147.56 18.1619 147.414 18.5561C147.269 18.9503 147.196 19.4013 147.196 19.9091C147.196 20.4205 147.269 20.8768 147.414 21.2781C147.563 21.6758 147.782 21.9901 148.07 22.2209C148.361 22.4482 148.718 22.5618 149.14 22.5618Z" fill="white"/>
</svg>
