<svg width="272" height="45" viewBox="0 0 272 45" fill="none" xmlns="http://www.w3.org/2000/svg">
<rect x="0.5" y="0.5" width="270.831" height="44" rx="6.5" fill="#3F8A62" stroke="#D2D5DA"/>
<path d="M94.179 20.0994C94.0606 19.7159 93.8973 19.3726 93.6889 19.0696C93.4853 18.7618 93.2391 18.4991 92.9503 18.2812C92.6662 18.0634 92.3395 17.9001 91.9702 17.7912C91.6009 17.6776 91.1984 17.6207 90.7628 17.6207C89.9815 17.6207 89.2855 17.8172 88.6747 18.2102C88.0639 18.6032 87.5833 19.1809 87.233 19.9432C86.8873 20.7008 86.7145 21.6241 86.7145 22.7131C86.7145 23.8116 86.8873 24.742 87.233 25.5043C87.5786 26.2666 88.0592 26.8466 88.6747 27.2443C89.2902 27.6373 90.0052 27.8338 90.8196 27.8338C91.5582 27.8338 92.1974 27.6918 92.7372 27.4077C93.2817 27.1236 93.7008 26.7211 93.9943 26.2003C94.2879 25.6747 94.4347 25.0592 94.4347 24.3537L95.0312 24.446H91.0824V22.3864H96.9844V24.1335C96.9844 25.3788 96.7192 26.456 96.1889 27.3651C95.6586 28.2741 94.9295 28.9749 94.0014 29.4673C93.0734 29.955 92.008 30.1989 90.8054 30.1989C89.4654 30.1989 88.2888 29.8982 87.2756 29.2969C86.267 28.6908 85.4787 27.8314 84.9105 26.7188C84.3471 25.6013 84.0653 24.2756 84.0653 22.7415C84.0653 21.5672 84.2311 20.5185 84.5625 19.5952C84.8987 18.6719 85.3674 17.8883 85.9688 17.2443C86.5701 16.5956 87.2756 16.1032 88.0852 15.767C88.8949 15.4261 89.7756 15.2557 90.7273 15.2557C91.5322 15.2557 92.2827 15.3741 92.9787 15.6108C93.6747 15.8428 94.2926 16.1742 94.8324 16.6051C95.3769 17.036 95.8243 17.5473 96.1747 18.1392C96.5251 18.7311 96.7547 19.3845 96.8636 20.0994H94.179ZM103.448 30.2131C102.354 30.2131 101.41 29.9858 100.614 29.5312C99.8237 29.072 99.2153 28.4233 98.7891 27.5852C98.363 26.7424 98.1499 25.7505 98.1499 24.6094C98.1499 23.4872 98.363 22.5024 98.7891 21.6548C99.22 20.8026 99.8213 20.1397 100.593 19.6662C101.365 19.188 102.272 18.9489 103.313 18.9489C103.986 18.9489 104.62 19.0578 105.217 19.2756C105.818 19.4886 106.348 19.8201 106.808 20.2699C107.272 20.7197 107.636 21.2926 107.901 21.9886C108.167 22.6799 108.299 23.5038 108.299 24.4602V25.2486H99.3573V23.5156H105.835C105.83 23.0232 105.723 22.5852 105.515 22.2017C105.307 21.8134 105.015 21.508 104.641 21.2855C104.272 21.063 103.841 20.9517 103.349 20.9517C102.823 20.9517 102.362 21.0795 101.964 21.3352C101.566 21.5862 101.256 21.9176 101.033 22.3295C100.816 22.7367 100.704 23.1842 100.7 23.6719V25.1847C100.7 25.8191 100.816 26.3636 101.048 26.8182C101.28 27.268 101.604 27.6136 102.021 27.8551C102.437 28.0919 102.925 28.2102 103.484 28.2102C103.858 28.2102 104.196 28.1581 104.499 28.054C104.802 27.9451 105.065 27.7865 105.288 27.5781C105.51 27.3698 105.678 27.1117 105.792 26.804L108.193 27.0739C108.041 27.7083 107.752 28.2623 107.326 28.7358C106.905 29.2045 106.365 29.5691 105.707 29.8295C105.049 30.0852 104.296 30.2131 103.448 30.2131ZM115.122 19.0909V21.0795H108.85V19.0909H115.122ZM110.399 16.4773H112.97V26.7188C112.97 27.0644 113.022 27.3295 113.126 27.5142C113.235 27.6941 113.377 27.8172 113.552 27.8835C113.727 27.9498 113.921 27.983 114.134 27.983C114.295 27.983 114.442 27.9711 114.575 27.9474C114.712 27.9238 114.816 27.9025 114.887 27.8835L115.32 29.8935C115.183 29.9408 114.987 29.9929 114.731 30.0497C114.48 30.1065 114.172 30.1397 113.808 30.1491C113.164 30.1681 112.584 30.071 112.068 29.858C111.552 29.6402 111.142 29.304 110.839 28.8494C110.541 28.3949 110.394 27.8267 110.399 27.1449V16.4773ZM128.651 19.4531C128.585 18.8329 128.306 18.3499 127.813 18.0043C127.325 17.6586 126.691 17.4858 125.91 17.4858C125.36 17.4858 124.889 17.5687 124.496 17.7344C124.103 17.9001 123.803 18.125 123.594 18.4091C123.386 18.6932 123.28 19.0175 123.275 19.3821C123.275 19.6851 123.343 19.9479 123.481 20.1705C123.623 20.393 123.815 20.5824 124.056 20.7386C124.298 20.8902 124.565 21.018 124.859 21.1222C125.152 21.2263 125.448 21.3139 125.746 21.3849L127.11 21.7259C127.659 21.8537 128.187 22.0265 128.694 22.2443C129.205 22.4621 129.662 22.7367 130.065 23.0682C130.472 23.3996 130.794 23.7997 131.03 24.2685C131.267 24.7372 131.386 25.2865 131.386 25.9162C131.386 26.7685 131.168 27.5189 130.732 28.1676C130.297 28.8116 129.667 29.3158 128.843 29.6804C128.024 30.0402 127.032 30.2202 125.867 30.2202C124.735 30.2202 123.753 30.045 122.92 29.6946C122.091 29.3442 121.442 28.8329 120.974 28.1605C120.51 27.4882 120.259 26.669 120.221 25.7031H122.813C122.851 26.2098 123.007 26.6312 123.282 26.9673C123.557 27.3035 123.914 27.5545 124.354 27.7202C124.799 27.8859 125.297 27.9688 125.846 27.9688C126.419 27.9688 126.921 27.8835 127.351 27.7131C127.787 27.5379 128.128 27.2964 128.374 26.9886C128.62 26.6761 128.746 26.3116 128.751 25.8949C128.746 25.5161 128.635 25.2036 128.417 24.9574C128.199 24.7064 127.894 24.4981 127.501 24.3324C127.112 24.1619 126.658 24.0104 126.137 23.8778L124.482 23.4517C123.284 23.1439 122.337 22.6776 121.641 22.0526C120.95 21.4228 120.604 20.5871 120.604 19.5455C120.604 18.6884 120.836 17.938 121.3 17.294C121.769 16.6501 122.406 16.1506 123.211 15.7955C124.016 15.4356 124.927 15.2557 125.945 15.2557C126.977 15.2557 127.882 15.4356 128.658 15.7955C129.44 16.1506 130.053 16.6454 130.498 17.2798C130.943 17.9096 131.173 18.634 131.187 19.4531H128.651ZM138.268 19.0909V21.0795H131.997V19.0909H138.268ZM133.545 16.4773H136.116V26.7188C136.116 27.0644 136.169 27.3295 136.273 27.5142C136.382 27.6941 136.524 27.8172 136.699 27.8835C136.874 27.9498 137.068 27.983 137.281 27.983C137.442 27.983 137.589 27.9711 137.722 27.9474C137.859 27.9238 137.963 27.9025 138.034 27.8835L138.467 29.8935C138.33 29.9408 138.134 29.9929 137.878 30.0497C137.627 30.1065 137.319 30.1397 136.955 30.1491C136.311 30.1681 135.731 30.071 135.214 29.858C134.698 29.6402 134.289 29.304 133.986 28.8494C133.688 28.3949 133.541 27.8267 133.545 27.1449V16.4773ZM142.758 30.2202C142.067 30.2202 141.444 30.0971 140.89 29.8509C140.341 29.5999 139.905 29.2306 139.583 28.7429C139.266 28.2552 139.107 27.6539 139.107 26.9389C139.107 26.3234 139.221 25.8144 139.448 25.4119C139.675 25.0095 139.986 24.6875 140.379 24.446C140.772 24.2045 141.214 24.0223 141.707 23.8991C142.204 23.7713 142.718 23.679 143.248 23.6222C143.887 23.5559 144.406 23.4967 144.803 23.4446C145.201 23.3878 145.49 23.3026 145.67 23.1889C145.854 23.0705 145.947 22.8883 145.947 22.642V22.5994C145.947 22.0644 145.788 21.6501 145.471 21.3565C145.154 21.063 144.697 20.9162 144.1 20.9162C143.47 20.9162 142.971 21.0535 142.602 21.3281C142.237 21.6027 141.991 21.9271 141.863 22.3011L139.462 21.9602C139.652 21.2973 139.964 20.7434 140.4 20.2983C140.836 19.8485 141.368 19.5123 141.998 19.2898C142.628 19.0625 143.324 18.9489 144.086 18.9489C144.612 18.9489 145.135 19.0104 145.656 19.1335C146.176 19.2566 146.652 19.4602 147.083 19.7443C147.514 20.0237 147.86 20.4048 148.12 20.8878C148.385 21.3707 148.518 21.9744 148.518 22.6989V30H146.046V28.5014H145.961C145.805 28.8045 145.585 29.0885 145.3 29.3537C145.021 29.6141 144.668 29.8248 144.242 29.9858C143.821 30.142 143.326 30.2202 142.758 30.2202ZM143.425 28.331C143.942 28.331 144.389 28.2292 144.768 28.0256C145.147 27.8172 145.438 27.5426 145.641 27.2017C145.85 26.8608 145.954 26.4891 145.954 26.0866V24.8011C145.873 24.8674 145.736 24.929 145.542 24.9858C145.353 25.0426 145.14 25.0923 144.903 25.1349C144.666 25.1776 144.432 25.2154 144.2 25.2486C143.968 25.2817 143.766 25.3101 143.596 25.3338C143.212 25.3859 142.869 25.4711 142.566 25.5895C142.263 25.7079 142.024 25.8736 141.849 26.0866C141.674 26.295 141.586 26.5649 141.586 26.8963C141.586 27.3698 141.759 27.7273 142.104 27.9688C142.45 28.2102 142.89 28.331 143.425 28.331ZM150.303 30V19.0909H152.796V20.9091H152.91C153.108 20.2794 153.449 19.794 153.932 19.4531C154.42 19.1075 154.976 18.9347 155.601 18.9347C155.743 18.9347 155.902 18.9418 156.077 18.956C156.257 18.9654 156.406 18.982 156.525 19.0057V21.3707C156.416 21.3329 156.243 21.2997 156.006 21.2713C155.774 21.2382 155.549 21.2216 155.331 21.2216C154.863 21.2216 154.441 21.3234 154.067 21.527C153.698 21.7259 153.407 22.0028 153.194 22.358C152.981 22.7131 152.874 23.1226 152.874 23.5866V30H150.303ZM163.466 19.0909V21.0795H157.195V19.0909H163.466ZM158.743 16.4773H161.314V26.7188C161.314 27.0644 161.366 27.3295 161.47 27.5142C161.579 27.6941 161.721 27.8172 161.897 27.8835C162.072 27.9498 162.266 27.983 162.479 27.983C162.64 27.983 162.787 27.9711 162.919 27.9474C163.057 27.9238 163.161 27.9025 163.232 27.8835L163.665 29.8935C163.528 29.9408 163.331 29.9929 163.075 30.0497C162.825 30.1065 162.517 30.1397 162.152 30.1491C161.508 30.1681 160.928 30.071 160.412 29.858C159.896 29.6402 159.486 29.304 159.183 28.8494C158.885 28.3949 158.738 27.8267 158.743 27.1449V16.4773ZM169.529 30.2131C168.435 30.2131 167.49 29.9858 166.695 29.5312C165.904 29.072 165.296 28.4233 164.87 27.5852C164.443 26.7424 164.23 25.7505 164.23 24.6094C164.23 23.4872 164.443 22.5024 164.87 21.6548C165.3 20.8026 165.902 20.1397 166.674 19.6662C167.445 19.188 168.352 18.9489 169.394 18.9489C170.066 18.9489 170.701 19.0578 171.297 19.2756C171.898 19.4886 172.429 19.8201 172.888 20.2699C173.352 20.7197 173.717 21.2926 173.982 21.9886C174.247 22.6799 174.38 23.5038 174.38 24.4602V25.2486H165.438V23.5156H171.915C171.91 23.0232 171.804 22.5852 171.595 22.2017C171.387 21.8134 171.096 21.508 170.722 21.2855C170.353 21.063 169.922 20.9517 169.429 20.9517C168.904 20.9517 168.442 21.0795 168.044 21.3352C167.647 21.5862 167.336 21.9176 167.114 22.3295C166.896 22.7367 166.785 23.1842 166.78 23.6719V25.1847C166.78 25.8191 166.896 26.3636 167.128 26.8182C167.36 27.268 167.684 27.6136 168.101 27.8551C168.518 28.0919 169.005 28.2102 169.564 28.2102C169.938 28.2102 170.277 28.1581 170.58 28.054C170.883 27.9451 171.146 27.7865 171.368 27.5781C171.591 27.3698 171.759 27.1117 171.872 26.804L174.273 27.0739C174.121 27.7083 173.833 28.2623 173.407 28.7358C172.985 29.2045 172.445 29.5691 171.787 29.8295C171.129 30.0852 170.376 30.2131 169.529 30.2131ZM179.803 30.1918C178.946 30.1918 178.179 29.9716 177.502 29.5312C176.825 29.0909 176.29 28.4517 175.897 27.6136C175.504 26.7756 175.307 25.7576 175.307 24.5597C175.307 23.3475 175.506 22.3248 175.904 21.4915C176.306 20.6534 176.848 20.0213 177.53 19.5952C178.212 19.1643 178.972 18.9489 179.81 18.9489C180.449 18.9489 180.975 19.0578 181.387 19.2756C181.799 19.4886 182.125 19.7467 182.367 20.0497C182.608 20.348 182.795 20.6297 182.928 20.8949H183.034V15.4545H185.613V30H183.084V28.2812H182.928C182.795 28.5464 182.604 28.8281 182.353 29.1264C182.102 29.42 181.77 29.6709 181.358 29.8793C180.946 30.0876 180.428 30.1918 179.803 30.1918ZM180.52 28.0824C181.065 28.0824 181.529 27.9356 181.912 27.642C182.296 27.3437 182.587 26.9295 182.786 26.3991C182.985 25.8688 183.084 25.2509 183.084 24.5455C183.084 23.84 182.985 23.2268 182.786 22.706C182.592 22.1851 182.303 21.7803 181.919 21.4915C181.541 21.2027 181.074 21.0582 180.52 21.0582C179.947 21.0582 179.469 21.2074 179.086 21.5057C178.702 21.804 178.413 22.2159 178.219 22.7415C178.025 23.267 177.928 23.8684 177.928 24.5455C177.928 25.2273 178.025 25.8357 178.219 26.3707C178.418 26.901 178.709 27.3201 179.093 27.6278C179.481 27.9309 179.957 28.0824 180.52 28.0824Z" fill="white"/>
</svg>
