<svg width="273" height="45" viewBox="0 0 273 45" fill="none" xmlns="http://www.w3.org/2000/svg">
<rect x="0.889648" y="0.5" width="270.831" height="44" rx="6.5" fill="#F9FAFB" stroke="#D2D5DA"/>
<path d="M80.7814 30L76.6763 15.4545H79.5101L82.1308 26.1435H82.2658L85.0641 15.4545H87.6422L90.4476 26.1506H90.5754L93.1962 15.4545H96.03L91.9248 30H89.3254L86.4135 19.794H86.2998L83.3808 30H80.7814ZM98.9693 30.2202C98.278 30.2202 97.6554 30.0971 97.1014 29.8509C96.5522 29.5999 96.1166 29.2306 95.7946 28.7429C95.4774 28.2552 95.3187 27.6539 95.3187 26.9389C95.3187 26.3234 95.4324 25.8144 95.6597 25.4119C95.8869 25.0095 96.1971 24.6875 96.59 24.446C96.983 24.2045 97.4257 24.0223 97.9182 23.8991C98.4153 23.7713 98.9291 23.679 99.4594 23.6222C100.099 23.5559 100.617 23.4967 101.015 23.4446C101.412 23.3878 101.701 23.3026 101.881 23.1889C102.066 23.0705 102.158 22.8883 102.158 22.642V22.5994C102.158 22.0644 102 21.6501 101.682 21.3565C101.365 21.063 100.908 20.9162 100.312 20.9162C99.6819 20.9162 99.1824 21.0535 98.8131 21.3281C98.4485 21.6027 98.2023 21.9271 98.0744 22.3011L95.6739 21.9602C95.8632 21.2973 96.1757 20.7434 96.6114 20.2983C97.047 19.8485 97.5796 19.5123 98.2094 19.2898C98.8391 19.0625 99.5351 18.9489 100.297 18.9489C100.823 18.9489 101.346 19.0104 101.867 19.1335C102.388 19.2566 102.864 19.4602 103.295 19.7443C103.725 20.0237 104.071 20.4048 104.332 20.8878C104.597 21.3707 104.729 21.9744 104.729 22.6989V30H102.258V28.5014H102.172C102.016 28.8045 101.796 29.0885 101.512 29.3537C101.233 29.6141 100.88 29.8248 100.454 29.9858C100.032 30.142 99.5375 30.2202 98.9693 30.2202ZM99.6369 28.331C100.153 28.331 100.6 28.2292 100.979 28.0256C101.358 27.8172 101.649 27.5426 101.853 27.2017C102.061 26.8608 102.165 26.4891 102.165 26.0866V24.8011C102.085 24.8674 101.948 24.929 101.753 24.9858C101.564 25.0426 101.351 25.0923 101.114 25.1349C100.877 25.1776 100.643 25.2154 100.411 25.2486C100.179 25.2817 99.9778 25.3101 99.8074 25.3338C99.4239 25.3859 99.0806 25.4711 98.7775 25.5895C98.4745 25.7079 98.2354 25.8736 98.0602 26.0866C97.885 26.295 97.7974 26.5649 97.7974 26.8963C97.7974 27.3698 97.9703 27.7273 98.3159 27.9688C98.6615 28.2102 99.1019 28.331 99.6369 28.331ZM111.962 19.0909V21.0795H105.691V19.0909H111.962ZM107.239 16.4773H109.81V26.7188C109.81 27.0644 109.862 27.3295 109.966 27.5142C110.075 27.6941 110.217 27.8172 110.392 27.8835C110.568 27.9498 110.762 27.983 110.975 27.983C111.136 27.983 111.282 27.9711 111.415 27.9474C111.552 27.9238 111.657 27.9025 111.728 27.8835L112.161 29.8935C112.023 29.9408 111.827 29.9929 111.571 30.0497C111.32 30.1065 111.013 30.1397 110.648 30.1491C110.004 30.1681 109.424 30.071 108.908 29.858C108.392 29.6402 107.982 29.304 107.679 28.8494C107.381 28.3949 107.234 27.8267 107.239 27.1449V16.4773ZM117.953 30.2131C116.864 30.2131 115.929 29.974 115.148 29.4957C114.372 29.0175 113.773 28.357 113.351 27.5142C112.935 26.6667 112.726 25.6913 112.726 24.5881C112.726 23.4801 112.939 22.5024 113.365 21.6548C113.792 20.8026 114.393 20.1397 115.169 19.6662C115.951 19.188 116.874 18.9489 117.939 18.9489C118.825 18.9489 119.608 19.1122 120.29 19.4389C120.977 19.7609 121.524 20.2178 121.931 20.8097C122.338 21.3968 122.57 22.0833 122.627 22.8693H120.169C120.07 22.3437 119.833 21.9058 119.459 21.5554C119.09 21.2003 118.595 21.0227 117.975 21.0227C117.449 21.0227 116.988 21.1648 116.59 21.4489C116.192 21.7282 115.882 22.1307 115.659 22.6562C115.442 23.1818 115.333 23.8116 115.333 24.5455C115.333 25.2888 115.442 25.928 115.659 26.4631C115.877 26.9934 116.183 27.4029 116.576 27.6918C116.973 27.9759 117.44 28.1179 117.975 28.1179C118.354 28.1179 118.692 28.0469 118.99 27.9048C119.293 27.758 119.547 27.5473 119.75 27.2727C119.954 26.9981 120.094 26.6643 120.169 26.2713H122.627C122.565 27.0431 122.338 27.7273 121.945 28.3239C121.552 28.9157 121.017 29.3797 120.34 29.7159C119.663 30.0473 118.867 30.2131 117.953 30.2131ZM126.509 23.608V30H123.938V15.4545H126.452V20.9446H126.58C126.836 20.3291 127.231 19.8437 127.766 19.4886C128.306 19.1288 128.992 18.9489 129.826 18.9489C130.583 18.9489 131.244 19.1075 131.807 19.4247C132.371 19.742 132.806 20.206 133.114 20.8168C133.427 21.4276 133.583 22.1733 133.583 23.054V30H131.012V23.4517C131.012 22.7178 130.822 22.1473 130.444 21.7401C130.07 21.3281 129.544 21.1222 128.867 21.1222C128.412 21.1222 128.005 21.2216 127.645 21.4205C127.29 21.6146 127.011 21.8963 126.807 22.2656C126.608 22.6349 126.509 23.0824 126.509 23.608ZM144.607 30H139.678V15.4545H144.707C146.151 15.4545 147.391 15.7457 148.428 16.3281C149.47 16.9058 150.27 17.7367 150.829 18.821C151.387 19.9053 151.667 21.2027 151.667 22.7131C151.667 24.2282 151.385 25.5303 150.822 26.6193C150.263 27.7083 149.456 28.544 148.4 29.1264C147.349 29.7088 146.084 30 144.607 30ZM142.313 27.7202H144.479C145.493 27.7202 146.338 27.5355 147.015 27.1662C147.692 26.7921 148.201 26.2358 148.542 25.4972C148.883 24.7538 149.053 23.8258 149.053 22.7131C149.053 21.6004 148.883 20.6771 148.542 19.9432C148.201 19.2045 147.697 18.6529 147.029 18.2884C146.366 17.919 145.542 17.7344 144.557 17.7344H142.313V27.7202ZM158.086 30.2131C156.992 30.2131 156.048 29.9858 155.252 29.5312C154.462 29.072 153.853 28.4233 153.427 27.5852C153.001 26.7424 152.788 25.7505 152.788 24.6094C152.788 23.4872 153.001 22.5024 153.427 21.6548C153.858 20.8026 154.459 20.1397 155.231 19.6662C156.003 19.188 156.91 18.9489 157.951 18.9489C158.624 18.9489 159.258 19.0578 159.855 19.2756C160.456 19.4886 160.986 19.8201 161.446 20.2699C161.91 20.7197 162.274 21.2926 162.539 21.9886C162.804 22.6799 162.937 23.5038 162.937 24.4602V25.2486H153.995V23.5156H160.473C160.468 23.0232 160.361 22.5852 160.153 22.2017C159.945 21.8134 159.653 21.508 159.279 21.2855C158.91 21.063 158.479 20.9517 157.987 20.9517C157.461 20.9517 157 21.0795 156.602 21.3352C156.204 21.5862 155.894 21.9176 155.671 22.3295C155.454 22.7367 155.342 23.1842 155.338 23.6719V25.1847C155.338 25.8191 155.454 26.3636 155.686 26.8182C155.918 27.268 156.242 27.6136 156.659 27.8551C157.075 28.0919 157.563 28.2102 158.122 28.2102C158.496 28.2102 158.834 28.1581 159.137 28.054C159.44 27.9451 159.703 27.7865 159.926 27.5781C160.148 27.3698 160.316 27.1117 160.43 26.804L162.831 27.0739C162.679 27.7083 162.39 28.2623 161.964 28.7358C161.543 29.2045 161.003 29.5691 160.345 29.8295C159.687 30.0852 158.934 30.2131 158.086 30.2131ZM164.312 30V19.0909H166.77V20.9446H166.897C167.125 20.3196 167.501 19.8319 168.027 19.4815C168.552 19.1264 169.18 18.9489 169.909 18.9489C170.647 18.9489 171.27 19.1288 171.777 19.4886C172.288 19.8437 172.648 20.3291 172.856 20.9446H172.97C173.211 20.3385 173.618 19.8556 174.191 19.4957C174.769 19.1312 175.453 18.9489 176.244 18.9489C177.248 18.9489 178.067 19.2661 178.701 19.9006C179.336 20.535 179.653 21.4607 179.653 22.6776V30H177.075V23.0753C177.075 22.3982 176.895 21.9034 176.535 21.5909C176.175 21.2737 175.735 21.1151 175.214 21.1151C174.594 21.1151 174.109 21.3092 173.758 21.6974C173.413 22.081 173.24 22.5805 173.24 23.196V30H170.718V22.9688C170.718 22.4053 170.548 21.9555 170.207 21.6193C169.871 21.2831 169.431 21.1151 168.886 21.1151C168.517 21.1151 168.181 21.2098 167.877 21.3991C167.574 21.5838 167.333 21.8466 167.153 22.1875C166.973 22.5237 166.883 22.9167 166.883 23.3665V30H164.312ZM186.22 30.2131C185.155 30.2131 184.231 29.9787 183.45 29.5099C182.669 29.0412 182.063 28.3854 181.632 27.5426C181.206 26.6998 180.993 25.715 180.993 24.5881C180.993 23.4612 181.206 22.474 181.632 21.6264C182.063 20.7789 182.669 20.1207 183.45 19.652C184.231 19.1832 185.155 18.9489 186.22 18.9489C187.285 18.9489 188.209 19.1832 188.99 19.652C189.771 20.1207 190.375 20.7789 190.801 21.6264C191.232 22.474 191.447 23.4612 191.447 24.5881C191.447 25.715 191.232 26.6998 190.801 27.5426C190.375 28.3854 189.771 29.0412 188.99 29.5099C188.209 29.9787 187.285 30.2131 186.22 30.2131ZM186.234 28.1534C186.812 28.1534 187.295 27.9948 187.683 27.6776C188.071 27.3556 188.36 26.9247 188.549 26.3849C188.744 25.8452 188.841 25.2438 188.841 24.581C188.841 23.9134 188.744 23.3097 188.549 22.7699C188.36 22.2254 188.071 21.7921 187.683 21.4702C187.295 21.1482 186.812 20.9872 186.234 20.9872C185.642 20.9872 185.15 21.1482 184.757 21.4702C184.369 21.7921 184.077 22.2254 183.883 22.7699C183.694 23.3097 183.599 23.9134 183.599 24.581C183.599 25.2438 183.694 25.8452 183.883 26.3849C184.077 26.9247 184.369 27.3556 184.757 27.6776C185.15 27.9948 185.642 28.1534 186.234 28.1534Z" fill="#394150"/>
</svg>
