<svg width="233" height="40" viewBox="0 0 233 40" fill="none" xmlns="http://www.w3.org/2000/svg">
<rect x="0.5" y="0.5" width="232" height="39" rx="6.5" fill="#F9FAFB" stroke="#D2D5DA"/>
<path d="M76.3718 25L73.293 14.0909H75.4183L77.3839 22.1076H77.4851L79.5838 14.0909H81.5174L83.6214 22.1129H83.7173L85.6829 14.0909H87.8082L84.7294 25H82.7798L80.5959 17.3455H80.5107L78.3214 25H76.3718ZM90.0127 25.1651C89.4943 25.1651 89.0273 25.0728 88.6118 24.8881C88.1999 24.6999 87.8732 24.4229 87.6317 24.0572C87.3938 23.6914 87.2748 23.2404 87.2748 22.7042C87.2748 22.2425 87.36 21.8608 87.5305 21.5589C87.701 21.2571 87.9336 21.0156 88.2283 20.8345C88.523 20.6534 88.8551 20.5167 89.2244 20.4244C89.5973 20.3285 89.9826 20.2592 90.3803 20.2166C90.8597 20.1669 91.2485 20.1225 91.5468 20.0835C91.8451 20.0408 92.0618 19.9769 92.1967 19.8917C92.3352 19.8029 92.4044 19.6662 92.4044 19.4815V19.4496C92.4044 19.0483 92.2855 18.7376 92.0475 18.5174C91.8096 18.2972 91.4669 18.1871 91.0195 18.1871C90.5472 18.1871 90.1725 18.2901 89.8956 18.4961C89.6221 18.7021 89.4375 18.9453 89.3416 19.2259L87.5412 18.9702C87.6832 18.473 87.9176 18.0575 88.2443 17.7237C88.571 17.3864 88.9705 17.1342 89.4428 16.9673C89.9151 16.7969 90.4371 16.7116 91.0088 16.7116C91.403 16.7116 91.7954 16.7578 92.186 16.8501C92.5767 16.9425 92.9336 17.0952 93.2567 17.3082C93.5799 17.5178 93.8391 17.8036 94.0344 18.1658C94.2333 18.5281 94.3327 18.9808 94.3327 19.5241V25H92.479V23.8761H92.4151C92.2979 24.1033 92.1328 24.3164 91.9197 24.5153C91.7102 24.7106 91.4456 24.8686 91.126 24.9893C90.81 25.1065 90.4389 25.1651 90.0127 25.1651ZM90.5135 23.7482C90.9005 23.7482 91.2361 23.6719 91.5202 23.5192C91.8043 23.3629 92.0227 23.157 92.1754 22.9013C92.3316 22.6456 92.4098 22.3668 92.4098 22.065V21.1009C92.3494 21.1506 92.2464 21.1967 92.1008 21.2393C91.9588 21.282 91.799 21.3192 91.6214 21.3512C91.4439 21.3832 91.2681 21.4116 91.0941 21.4364C90.9201 21.4613 90.7691 21.4826 90.6413 21.5004C90.3537 21.5394 90.0962 21.6033 89.8689 21.6921C89.6417 21.7809 89.4623 21.9052 89.3309 22.065C89.1995 22.2212 89.1338 22.4237 89.1338 22.6722C89.1338 23.0273 89.2635 23.2955 89.5227 23.4766C89.7819 23.6577 90.1122 23.7482 90.5135 23.7482ZM99.7572 16.8182V18.3097H95.0537V16.8182H99.7572ZM96.2149 14.858H98.1432V22.5391C98.1432 22.7983 98.1823 22.9972 98.2604 23.1357C98.3421 23.2706 98.4486 23.3629 98.58 23.4126C98.7114 23.4624 98.857 23.4872 99.0168 23.4872C99.1375 23.4872 99.2476 23.4783 99.3471 23.4606C99.45 23.4428 99.5282 23.4268 99.5814 23.4126L99.9064 24.9201C99.8034 24.9556 99.656 24.9947 99.4642 25.0373C99.276 25.0799 99.0452 25.1048 98.7718 25.1119C98.2888 25.1261 97.8538 25.0533 97.4667 24.8935C97.0797 24.7301 96.7725 24.478 96.5452 24.1371C96.3215 23.7962 96.2114 23.37 96.2149 22.8587V14.858ZM104.251 25.1598C103.434 25.1598 102.733 24.9805 102.147 24.6218C101.564 24.2631 101.115 23.7678 100.799 23.1357C100.487 22.5 100.33 21.7685 100.33 20.9411C100.33 20.1101 100.49 19.3768 100.81 18.7411C101.129 18.1019 101.58 17.6048 102.163 17.2496C102.749 16.891 103.441 16.7116 104.24 16.7116C104.904 16.7116 105.492 16.8342 106.003 17.0792C106.518 17.3207 106.928 17.6634 107.234 18.1072C107.539 18.5476 107.713 19.0625 107.756 19.652H105.913C105.838 19.2578 105.661 18.9293 105.38 18.6665C105.103 18.4002 104.732 18.267 104.267 18.267C103.873 18.267 103.526 18.3736 103.228 18.5866C102.93 18.7962 102.697 19.098 102.53 19.4922C102.367 19.8864 102.285 20.3587 102.285 20.9091C102.285 21.4666 102.367 21.946 102.53 22.3473C102.694 22.745 102.923 23.0522 103.217 23.2688C103.516 23.4819 103.866 23.5884 104.267 23.5884C104.551 23.5884 104.805 23.5352 105.029 23.4286C105.256 23.3185 105.446 23.1605 105.599 22.9545C105.751 22.7486 105.856 22.4982 105.913 22.2035H107.756C107.71 22.7823 107.539 23.2955 107.244 23.7429C106.95 24.1868 106.548 24.5348 106.041 24.7869C105.533 25.0355 104.936 25.1598 104.251 25.1598ZM110.667 20.206V25H108.739V14.0909H110.625V18.2085H110.721C110.912 17.7468 111.209 17.3828 111.61 17.1165C112.015 16.8466 112.53 16.7116 113.155 16.7116C113.723 16.7116 114.219 16.8306 114.641 17.0685C115.064 17.3065 115.39 17.6545 115.621 18.1126C115.856 18.5707 115.973 19.13 115.973 19.7905V25H114.045V20.0888C114.045 19.5384 113.903 19.1104 113.618 18.805C113.338 18.4961 112.944 18.3416 112.436 18.3416C112.095 18.3416 111.79 18.4162 111.52 18.5653C111.253 18.7109 111.044 18.9222 110.891 19.1992C110.742 19.4762 110.667 19.8118 110.667 20.206ZM124.241 25H120.544V14.0909H124.316C125.399 14.0909 126.329 14.3093 127.107 14.7461C127.888 15.1793 128.488 15.8026 128.907 16.6158C129.326 17.429 129.536 18.402 129.536 19.5348C129.536 20.6712 129.325 21.6477 128.902 22.4645C128.483 23.2812 127.877 23.908 127.086 24.3448C126.297 24.7816 125.349 25 124.241 25ZM122.521 23.2901H124.145C124.905 23.2901 125.539 23.1516 126.047 22.8746C126.555 22.5941 126.936 22.1768 127.192 21.6229C127.448 21.0653 127.576 20.3693 127.576 19.5348C127.576 18.7003 127.448 18.0078 127.192 17.4574C126.936 16.9034 126.558 16.4897 126.057 16.2163C125.56 15.9393 124.942 15.8008 124.204 15.8008H122.521V23.2901ZM134.35 25.1598C133.53 25.1598 132.822 24.9893 132.225 24.6484C131.632 24.304 131.176 23.8175 130.856 23.1889C130.537 22.5568 130.377 21.8129 130.377 20.957C130.377 20.1154 130.537 19.3768 130.856 18.7411C131.179 18.1019 131.63 17.6048 132.209 17.2496C132.788 16.891 133.468 16.7116 134.249 16.7116C134.753 16.7116 135.229 16.7933 135.677 16.9567C136.128 17.1165 136.525 17.3651 136.87 17.7024C137.218 18.0398 137.491 18.4695 137.69 18.9915C137.889 19.5099 137.989 20.1278 137.989 20.8452V21.4364H131.282V20.1367H136.14C136.137 19.7674 136.057 19.4389 135.9 19.1513C135.744 18.8601 135.526 18.631 135.245 18.4641C134.968 18.2972 134.645 18.2138 134.276 18.2138C133.882 18.2138 133.535 18.3097 133.237 18.5014C132.939 18.6896 132.706 18.9382 132.539 19.2472C132.376 19.5526 132.293 19.8881 132.289 20.2539V21.3885C132.289 21.8643 132.376 22.2727 132.55 22.6136C132.724 22.951 132.967 23.2102 133.28 23.3913C133.592 23.5689 133.958 23.6577 134.377 23.6577C134.658 23.6577 134.912 23.6186 135.139 23.5405C135.366 23.4588 135.563 23.3398 135.73 23.1836C135.897 23.0273 136.023 22.8338 136.108 22.603L137.909 22.8054C137.795 23.2812 137.578 23.6967 137.259 24.0518C136.943 24.4034 136.538 24.6768 136.044 24.8722C135.551 25.0639 134.986 25.1598 134.35 25.1598ZM139.02 25V16.8182H140.863V18.2085H140.959C141.129 17.7397 141.412 17.3739 141.806 17.1112C142.2 16.8448 142.67 16.7116 143.217 16.7116C143.771 16.7116 144.238 16.8466 144.618 17.1165C145.002 17.3828 145.272 17.7468 145.428 18.2085H145.513C145.694 17.7539 146 17.3917 146.429 17.1218C146.863 16.8484 147.376 16.7116 147.969 16.7116C148.722 16.7116 149.336 16.9496 149.812 17.4254C150.288 17.9013 150.526 18.5955 150.526 19.5082V25H148.592V19.8065C148.592 19.2987 148.457 18.9276 148.187 18.6932C147.917 18.4553 147.587 18.3363 147.196 18.3363C146.731 18.3363 146.367 18.4819 146.104 18.7731C145.845 19.0607 145.716 19.4354 145.716 19.897V25H143.825V19.7266C143.825 19.304 143.697 18.9666 143.441 18.7145C143.189 18.4624 142.859 18.3363 142.45 18.3363C142.173 18.3363 141.921 18.4073 141.694 18.5494C141.467 18.6879 141.285 18.8849 141.151 19.1406C141.016 19.3928 140.948 19.6875 140.948 20.0249V25H139.02ZM155.451 25.1598C154.652 25.1598 153.959 24.984 153.373 24.6325C152.787 24.2809 152.333 23.7891 152.01 23.157C151.69 22.5249 151.53 21.7862 151.53 20.9411C151.53 20.0959 151.69 19.3555 152.01 18.7198C152.333 18.0842 152.787 17.5906 153.373 17.239C153.959 16.8874 154.652 16.7116 155.451 16.7116C156.25 16.7116 156.942 16.8874 157.528 17.239C158.114 17.5906 158.567 18.0842 158.886 18.7198C159.21 19.3555 159.371 20.0959 159.371 20.9411C159.371 21.7862 159.21 22.5249 158.886 23.157C158.567 23.7891 158.114 24.2809 157.528 24.6325C156.942 24.984 156.25 25.1598 155.451 25.1598ZM155.461 23.6151C155.895 23.6151 156.257 23.4961 156.548 23.2582C156.839 23.0167 157.056 22.6935 157.198 22.2887C157.343 21.8839 157.416 21.4329 157.416 20.9357C157.416 20.435 157.343 19.9822 157.198 19.5774C157.056 19.169 156.839 18.8441 156.548 18.6026C156.257 18.3612 155.895 18.2404 155.461 18.2404C155.017 18.2404 154.648 18.3612 154.353 18.6026C154.062 18.8441 153.844 19.169 153.698 19.5774C153.556 19.9822 153.485 20.435 153.485 20.9357C153.485 21.4329 153.556 21.8839 153.698 22.2887C153.844 22.6935 154.062 23.0167 154.353 23.2582C154.648 23.4961 155.017 23.6151 155.461 23.6151Z" fill="#394150"/>
</svg>
