<svg width="24" height="24" viewBox="0 0 24 24" fill="none" xmlns="http://www.w3.org/2000/svg">
<path d="M12.6338 20.1016C12.3102 20.1019 11.9868 20.0842 11.6651 20.0488C10.6624 20.9533 9.35934 21.4529 8.00894 21.4507H2.5449V15.94C2.55309 14.5048 3.12822 13.1311 4.14492 12.1182L6.19405 10.0691C7.0374 9.22509 8.13375 8.68021 9.31577 8.51765C10.4978 8.35509 11.7005 8.58376 12.7404 9.16877C13.7803 9.75378 14.6002 10.663 15.0749 11.7576C15.5497 12.8522 15.6532 14.0721 15.3698 15.2311C15.5894 15.0767 15.7956 14.9041 15.9862 14.7151L17.9807 12.7197C17.7262 11.0334 16.9376 9.4732 15.7308 8.26829V8.26829C14.2269 6.76748 12.1889 5.92459 10.0642 5.92459C7.93953 5.92459 5.90161 6.76748 4.39765 8.26829L2.34676 10.3201C0.854458 11.8073 0.0108586 13.8243 0 15.9312V24H8.01334C9.06599 24.002 10.1086 23.7957 11.0812 23.393C12.0537 22.9902 12.9369 22.3989 13.6799 21.6532L15.7282 19.6041C15.7599 19.5733 15.788 19.5407 15.8162 19.5099C14.8014 19.9031 13.7222 20.1038 12.6338 20.1016V20.1016Z" fill="black"/>
<path d="M8.76789 15.232C8.10447 14.5678 7.62314 13.744 7.37021 12.84C7.11729 11.9359 7.10128 10.982 7.32373 10.07C7.10413 10.2244 6.89793 10.397 6.70732 10.586L4.71631 12.5814C4.97116 14.2677 5.76004 15.8279 6.96709 17.0328V17.0328C8.47105 18.5336 10.509 19.3765 12.6337 19.3765C14.7584 19.3765 16.7963 18.5336 18.3002 17.0328L21.6562 13.6769C23.1568 12.1728 23.9995 10.1349 23.9995 8.01028C23.9995 5.88565 23.1568 3.84778 21.6562 2.3437V2.3437C20.1522 0.842886 18.1143 0 15.9896 0C13.8649 0 11.827 0.842886 10.323 2.3437L6.96797 5.69962C6.93627 5.73044 6.90809 5.76302 6.87991 5.79384C7.89405 5.39998 8.97266 5.19841 10.0606 5.19945V5.19945C10.3795 5.19959 10.6981 5.21664 11.0151 5.25052L12.1212 4.14538C13.1472 3.12154 14.5375 2.54653 15.9869 2.54653C17.4364 2.54653 18.8267 3.12154 19.8527 4.14538V4.14538C20.8766 5.17141 21.4516 6.56168 21.4516 8.01116C21.4516 9.46064 20.8766 10.8509 19.8527 11.8769L16.4977 15.232C15.4717 16.2558 14.0814 16.8308 12.6319 16.8308C11.1824 16.8308 9.79215 16.2558 8.76613 15.232V15.232" fill="black"/>
</svg>
